<svg width="100" height="37" viewBox="0 0 100 37" fill="none" xmlns="http://www.w3.org/2000/svg">
<path d="M0 12.2983V8.07273H18.5215V12.2983H11.8769V29.6H6.65532V12.2983H0Z" fill="#0757C6"/>
<path d="M40.7906 18.8364C40.7906 21.2049 40.3269 23.2126 39.3996 24.8594C38.4723 26.5062 37.2168 27.757 35.6332 28.6119C34.0568 29.4669 32.2877 29.8943 30.3261 29.8943C28.3573 29.8943 26.5847 29.4634 25.0083 28.6014C23.4318 27.7395 22.1799 26.4886 21.2526 24.8489C20.3324 23.2021 19.8723 21.1979 19.8723 18.8364C19.8723 16.4678 20.3324 14.4601 21.2526 12.8134C22.1799 11.1666 23.4318 9.91572 25.0083 9.06079C26.5847 8.20587 28.3573 7.77841 30.3261 7.77841C32.2877 7.77841 34.0568 8.20587 35.6332 9.06079C37.2168 9.91572 38.4723 11.1666 39.3996 12.8134C40.3269 14.4601 40.7906 16.4678 40.7906 18.8364ZM35.3764 18.8364C35.3764 17.4348 35.1731 16.2506 34.7666 15.2835C34.3671 14.3165 33.7893 13.5842 33.0332 13.0866C32.2842 12.5891 31.3818 12.3403 30.3261 12.3403C29.2775 12.3403 28.3752 12.5891 27.619 13.0866C26.8629 13.5842 26.2816 14.3165 25.875 15.2835C25.4755 16.2506 25.2758 17.4348 25.2758 18.8364C25.2758 20.2379 25.4755 21.4222 25.875 22.3892C26.2816 23.3562 26.8629 24.0885 27.619 24.5861C28.3752 25.0836 29.2775 25.3324 30.3261 25.3324C31.3818 25.3324 32.2842 25.0836 33.0332 24.5861C33.7893 24.0885 34.3671 23.3562 34.7666 22.3892C35.1731 21.4222 35.3764 20.2379 35.3764 18.8364Z" fill="#0757C6"/>
<path d="M43.8828 29.6V8.07273H52.9349C54.5756 8.07273 55.9915 8.38807 57.1828 9.01875C58.3812 9.64242 59.3049 10.5149 59.954 11.6361C60.6032 12.7503 60.9277 14.0467 60.9277 15.5253C60.9277 17.0109 60.596 18.3108 59.9326 19.425C59.2764 20.5322 58.3384 21.3906 57.1186 22.0003C55.8988 22.6099 54.4507 22.9148 52.7744 22.9148H47.1891V18.8153H51.79C52.589 18.8153 53.2559 18.6787 53.7909 18.4054C54.333 18.1321 54.7432 17.7502 55.0214 17.2597C55.2996 16.7621 55.4387 16.184 55.4387 15.5253C55.4387 14.8596 55.2996 14.2849 55.0214 13.8014C54.7432 13.3109 54.333 12.9325 53.7909 12.6662C53.2488 12.3999 52.5818 12.2668 51.79 12.2668H49.1793V29.6H43.8828Z" fill="#0757C6"/>
<path d="M63.5919 8.63333C63.5919 3.86528 67.5265 0 72.3801 0H91.2118C96.0654 0 100 3.86528 100 8.63333V28.3667C100 33.1347 96.0654 37 91.2118 37H72.3801C67.5265 37 63.5919 33.1347 63.5919 28.3667V8.63333Z" fill="#E72C05"/>
<path d="M75.3393 10.4273V28.3667H71.4784V10.4273H75.3393Z" fill="white"/>
<path d="M77.8203 13.5544V10.4273H92.8179V13.5544H87.2273V28.3667H83.411V13.5544H77.8203Z" fill="white"/>
</svg>
