<svg width="142" height="52" viewBox="0 0 142 52" fill="none" xmlns="http://www.w3.org/2000/svg">
<path d="M0 17.2841V11.3455H26.3005V17.2841H16.8651V41.6H9.45055V17.2841H0Z" fill="#0757C6"/>
<path d="M57.9226 26.4727C57.9226 29.8015 57.2642 32.6231 55.9474 34.9375C54.6306 37.2519 52.8479 39.0098 50.5992 40.2114C48.3606 41.4129 45.8486 42.0136 43.0631 42.0136C40.2674 42.0136 37.7503 41.408 35.5117 40.1966C33.2732 38.9852 31.4955 37.2273 30.1787 34.9227C28.872 32.6083 28.2187 29.7917 28.2187 26.4727C28.2187 23.1439 28.872 20.3223 30.1787 18.008C31.4955 15.6936 33.2732 13.9356 35.5117 12.7341C37.7503 11.5326 40.2674 10.9318 43.0631 10.9318C45.8486 10.9318 48.3606 11.5326 50.5992 12.7341C52.8479 13.9356 54.6306 15.6936 55.9474 18.008C57.2642 20.3223 57.9226 23.1439 57.9226 26.4727ZM50.2346 26.4727C50.2346 24.503 49.9459 22.8386 49.3685 21.4795C48.8013 20.1205 47.9808 19.0913 46.9071 18.392C45.8435 17.6928 44.5622 17.3432 43.0631 17.3432C41.5741 17.3432 40.2927 17.6928 39.219 18.392C38.1453 19.0913 37.3198 20.1205 36.7424 21.4795C36.1752 22.8386 35.8916 24.503 35.8916 26.4727C35.8916 28.4424 36.1752 30.1068 36.7424 31.4659C37.3198 32.825 38.1453 33.8542 39.219 34.5534C40.2927 35.2527 41.5741 35.6023 43.0631 35.6023C44.5622 35.6023 45.8435 35.2527 46.9071 34.5534C47.9808 33.8542 48.8013 32.825 49.3685 31.4659C49.9459 30.1068 50.2346 28.4424 50.2346 26.4727Z" fill="#0757C6"/>
<path d="M62.3136 41.6V11.3455H75.1676C77.4973 11.3455 79.508 11.7886 81.1995 12.675C82.9013 13.5515 84.213 14.7776 85.1347 16.3534C86.0565 17.9193 86.5174 19.7413 86.5174 21.8193C86.5174 23.9072 86.0464 25.7341 85.1044 27.3C84.1725 28.8561 82.8405 30.0625 81.1084 30.9193C79.3763 31.7761 77.3201 32.2045 74.9397 32.2045H67.0085V26.4432H73.5419C74.6763 26.4432 75.6234 26.2511 76.3831 25.867C77.1529 25.483 77.7354 24.9462 78.1304 24.2568C78.5254 23.5576 78.723 22.7451 78.723 21.8193C78.723 20.8837 78.5254 20.0761 78.1304 19.3966C77.7354 18.7072 77.1529 18.1754 76.3831 17.8011C75.6133 17.4269 74.6662 17.2398 73.5419 17.2398H69.8346V41.6H62.3136Z" fill="#0757C6"/>
<path d="M90.3005 12.1333C90.3005 5.43228 95.8876 0 102.78 0H129.521C136.413 0 142 5.43228 142 12.1333V39.8667C142 46.5677 136.413 52 129.521 52H102.78C95.8876 52 90.3005 46.5677 90.3005 39.8667V12.1333Z" fill="#E72C05"/>
<path d="M106.982 14.6545V39.8667H101.499V14.6545H106.982Z" fill="white"/>
<path d="M110.505 19.0494V14.6545H131.801V19.0494H123.863V39.8667H118.444V19.0494H110.505Z" fill="white"/>
</svg>
