<svg width="503" height="420" viewBox="0 0 503 420" fill="none" xmlns="http://www.w3.org/2000/svg">
<path d="M245.305 295.762C233.449 296.053 221.591 296.228 209.742 296.668C199.679 297.041 189.618 297.6 179.572 298.297C169.94 298.966 160.309 299.757 150.71 300.789C139.979 301.943 129.264 303.3 118.575 304.799C100.039 307.399 81.6755 310.918 63.5818 315.762C53.194 318.544 42.9512 321.772 33.0359 325.973C27.6369 328.26 22.3669 330.808 17.3974 333.937C12.9636 336.729 8.81108 339.869 5.42294 343.921C2.94732 346.881 1.08686 350.156 0.336443 353.981C-0.630831 358.909 0.543652 363.422 3.14058 367.622C5.06225 370.73 7.56896 373.322 10.3484 375.671C15.1032 379.687 20.4281 382.8 25.9805 385.546C36.8449 390.918 48.2707 394.785 59.8973 398.093C72.2174 401.597 84.6976 404.44 97.3097 406.667C105.995 408.203 114.697 409.66 123.421 410.961C130.246 411.977 137.114 412.732 143.97 413.541C149.599 414.205 155.236 414.833 160.878 415.373C165.793 415.844 170.719 416.197 175.645 416.555C181.073 416.949 186.501 417.355 191.934 417.637C200.205 418.064 208.479 418.508 216.756 418.729C228.884 419.054 241.016 419.322 253.147 419.364C263.722 419.402 274.299 419.188 284.872 418.911C293.153 418.695 301.43 418.273 309.703 417.828C316.51 417.464 323.317 417.021 330.111 416.453C338.409 415.76 346.701 414.992 354.978 414.088C363.433 413.165 371.883 412.154 380.306 410.975C394.804 408.945 409.214 406.409 423.498 403.175C436.269 400.285 448.895 396.894 461.196 392.379C469.411 389.365 477.419 385.884 484.862 381.221C488.717 378.805 492.331 376.085 495.46 372.762C497.867 370.206 499.862 367.369 501.056 364.04C503.195 358.068 502.147 352.507 498.775 347.285C495.969 342.944 492.16 339.601 487.984 336.646C482.731 332.93 477.051 329.976 471.184 327.373C458.514 321.748 445.29 317.801 431.881 314.414C420.214 311.468 408.429 309.074 396.564 307.098C388.355 305.732 380.12 304.515 371.869 303.419C363.527 302.313 355.163 301.332 346.789 300.491C338.685 299.676 330.559 299.052 322.436 298.443C298.273 296.633 274.068 295.909 249.84 295.875C248.329 295.873 246.818 295.874 245.308 295.874C245.307 295.838 245.306 295.799 245.305 295.762Z" fill="#A0D2F4"/>
<path d="M305.875 0.431938C299.271 0.327803 292.552 0.699233 285.852 1.34981C273.389 2.55756 261.197 5.13413 249.146 8.52334C238.139 11.6195 227.513 15.5895 217.413 20.9787C195.879 32.469 180.227 49.4333 170.062 71.5604C165.753 80.939 162.889 90.7416 161.369 100.932C160.231 108.563 159.931 116.242 160.517 123.94C161.667 139.037 166.494 152.904 174.695 165.59C186.546 183.922 202.165 198.187 221.313 208.646C236.308 216.836 252.134 222.783 268.803 226.509C275.187 227.936 281.608 229.166 288.101 229.983C295.383 230.898 302.697 231.278 310.025 230.816C318.343 230.294 326.351 228.316 334.21 225.56C347.337 220.957 358.024 213.017 366.605 202.183C368.758 199.464 370.55 196.459 372.515 193.589C377.168 186.793 381.748 179.942 386.51 173.22C390.504 167.579 395.421 162.874 401.773 159.927C404.796 158.525 407.905 157.278 411.052 156.18C416.856 154.155 422.892 153.053 428.941 152.048C436.429 150.803 443.93 149.633 451.206 147.367C457.565 145.389 463.293 142.39 467.832 137.39C473.493 131.153 477.111 123.933 478.231 115.551C479.122 108.884 478.055 102.422 475.888 96.1062C473.46 89.0303 469.94 82.5192 465.413 76.5943C460.521 70.1937 455.467 63.9113 449.953 58.025C440.476 47.9099 429.745 39.314 418.026 31.9419C399.069 20.0157 378.598 11.7204 356.857 6.46639C348.488 4.44489 340.031 2.92044 331.488 1.90593C323.028 0.902154 314.535 0.331024 305.875 0.431938Z" fill="#A0D2F4"/>
<path d="M120.831 288.221C131.772 288.142 143.08 286.435 153.821 282.227C164.329 278.11 173.363 271.655 180.596 262.902C183.857 258.956 186.31 254.509 187.575 249.49C189.19 243.091 188.318 236.856 186.178 230.746C184.179 225.042 180.772 220.179 176.874 215.636C172.542 210.585 167.664 206.083 162.738 201.631C156.69 196.167 150.6 190.74 145.381 184.449C143.133 181.739 140.967 178.949 138.953 176.064C137.759 174.353 136.948 172.379 135.937 170.537C133.434 165.975 131.715 161.014 128.75 156.68C120.143 144.108 108.455 136.059 93.4976 133.171C76.3883 129.866 61.0654 133.982 47.5086 144.968C40.8955 150.327 36.1793 157.111 32.1836 164.461C27.8099 172.507 25.2011 181.137 24.1501 190.239C22.4915 204.59 24.7696 218.339 30.6226 231.489C38.3951 248.947 50.7164 262.472 66.781 272.658C77.7657 279.623 89.7047 284.208 102.488 286.586C108.349 287.677 114.272 288.169 120.831 288.221Z" fill="#A0D2F4"/>
<path d="M38.0387 336.813C38.0741 339.466 38.4981 341.944 39.2196 344.358C42.3629 354.892 49.0942 362.299 59.0417 366.821C64.6961 369.39 70.6951 370.466 76.8402 369.824C91.1195 368.328 101.458 361.184 107.151 347.811C108.489 344.671 109.17 341.331 109.312 337.901C109.326 337.57 109.314 337.239 109.314 336.813C85.5628 336.813 61.877 336.813 38.0387 336.813Z" fill="#E72C05"/>
<path d="M101.853 281.241C102.063 281.099 102.19 280.983 102.34 280.916C108.272 278.238 112.503 273.74 115.802 268.272C119.227 262.594 121.222 256.397 122.34 249.889C123.167 245.063 123.376 240.199 123.053 235.332C122.384 225.234 119.834 215.697 113.815 207.39C109.833 201.894 105.008 197.262 98.7655 194.309C93.7058 191.915 88.3981 190.693 82.7931 190.981C77.4608 191.255 72.3356 192.507 67.4681 194.688C57.9779 198.94 50.1109 205.169 44.4972 214.023C43.2895 215.928 42.2664 217.965 41.3356 220.023C40.8911 221.006 40.3372 221.694 39.4236 222.221C35.3849 224.551 32.2179 227.822 29.5243 231.577C26.849 235.309 25.4684 239.553 24.7094 244.026C23.8066 249.353 24.0106 254.64 25.374 259.875C26.1201 262.742 27.3869 265.388 28.9092 267.91C30.1234 269.921 31.3429 271.935 32.687 273.86C35.4407 277.807 37.4869 282.122 39.517 286.454C41.268 290.187 43.2347 293.792 45.8521 297.005C49.2574 301.185 53.2435 304.657 58.0927 307.103C64.7928 310.479 71.743 310.939 78.8886 308.902C90.3252 305.643 99.4332 295.406 101.427 283.658C101.566 282.837 101.716 282.018 101.853 281.241Z" fill="#88D9F8"/>
<path d="M94.9017 238.549C95.4567 236.522 95.9549 234.535 95.7799 232.45C95.7402 231.993 95.6468 231.537 95.5308 231.094C95.4986 230.97 95.2678 230.788 95.1776 230.811C95.0091 230.858 94.7944 231.011 94.7471 231.165C94.6655 231.438 94.6859 231.745 94.6774 232.039C94.5764 235.459 93.6382 238.617 91.9162 241.588C90.9135 243.322 89.5672 244.746 88.2962 246.246C86.3444 248.551 84.325 250.801 82.4227 253.147C79.3212 256.972 76.662 261.091 74.5074 265.528C74.3614 265.829 74.2004 266.124 74.0415 266.418C74.0232 266.45 73.9706 266.462 73.8955 266.506C73.8955 265.982 73.8955 265.48 73.8955 264.978C73.8955 255.026 73.8944 245.073 73.8933 235.121C73.8933 234.87 73.9084 234.615 73.8847 234.366C73.8515 233.995 73.6625 233.711 73.2706 233.689C72.8069 233.663 72.5933 233.976 72.5428 234.39C72.5084 234.681 72.5342 234.977 72.5353 235.272C72.5482 245.433 72.5642 255.596 72.575 265.759C72.5825 272.646 72.5857 279.533 72.5911 286.42C72.5922 286.666 72.5911 286.913 72.5911 287.176C72.4419 287.156 72.3377 287.171 72.3055 287.131C70.6125 284.895 68.3935 283.234 66.2367 281.495C64.0488 279.731 61.8631 277.958 59.7772 276.076C57.2607 273.805 55.3992 271.005 53.7545 268.06C53.5119 267.625 53.2209 267.21 52.8989 266.831C52.7947 266.708 52.4523 266.625 52.3428 266.702C52.1689 266.823 51.9874 267.106 52.0078 267.3C52.0486 267.663 52.1925 268.033 52.3621 268.364C53.6825 270.957 55.28 273.365 57.2575 275.506C59.8888 278.355 62.9441 280.721 65.993 283.093C68.0822 284.718 70.1187 286.392 71.6646 288.587C72.2916 289.477 72.6179 290.385 72.6147 291.502C72.5857 298.724 72.5943 305.948 72.619 313.169C72.6459 320.851 72.7038 328.533 72.7489 336.214C72.7511 336.507 72.7145 336.825 72.8155 337.085C72.8863 337.267 73.1633 337.485 73.3447 337.482C73.5262 337.478 73.8021 337.25 73.859 337.067C73.9535 336.756 73.9159 336.403 73.9159 336.067C73.9148 332.96 73.9073 329.851 73.9073 326.744C73.903 308.477 73.9073 290.209 73.8826 271.943C73.8815 270.735 74.1316 269.628 74.5911 268.532C76.2229 264.641 78.4119 261.072 80.7909 257.605C83.0776 254.276 85.7518 251.264 88.3949 248.224C91.5329 244.614 94.7342 241.054 97.7509 237.345C100.646 233.785 103.046 229.89 104.53 225.503C104.812 224.673 104.972 223.802 105.206 222.955C105.322 222.533 105.279 222.187 104.815 222.062C104.421 221.956 104.184 222.214 104.043 222.547C103.929 222.817 103.829 223.096 103.759 223.378C102.933 226.723 101.328 229.703 99.4837 232.574C98.1224 234.696 96.6194 236.706 94.9017 238.549Z" fill="#1F1D1F"/>
<path d="M42.626 219.37C43.2036 218.299 43.7286 217.392 44.1913 216.455C45.7587 213.273 47.8231 210.406 50.1044 207.732C54.6627 202.39 60.081 198.092 66.4525 195.058C71.0441 192.872 75.844 191.455 80.9541 191.275C83.0905 191.199 85.2312 191.228 87.3214 191.798C87.4824 191.843 87.6488 191.876 87.8163 191.885C88.2081 191.907 88.4497 191.68 88.5646 191.337C88.6977 190.936 88.4454 190.696 88.1265 190.542C87.944 190.455 87.725 190.44 87.52 190.403C81.9418 189.371 76.4838 189.988 71.1407 191.73C64.5062 193.891 58.7294 197.512 53.5999 202.223C50.6841 204.9 48.1076 207.859 45.88 211.121C44.4156 213.267 43.137 215.522 42.1139 217.915C41.9819 218.222 41.8359 218.536 41.793 218.861C41.764 219.073 41.8767 219.477 41.984 219.498C42.2202 219.546 42.494 219.402 42.626 219.37Z" fill="#1F1D1F"/>
<path d="M40.7505 290.349C40.8095 290.475 40.9019 290.707 41.021 290.925C42.5455 293.728 44.3179 296.361 46.3469 298.823C47.8392 300.638 49.4398 302.347 51.2896 303.805C51.6825 304.114 52.1012 304.404 52.5467 304.625C52.7249 304.714 53.1403 304.675 53.2123 304.554C53.3347 304.348 53.3433 304.006 53.2606 303.77C53.1865 303.56 52.9375 303.397 52.741 303.246C49.88 301.071 47.5525 298.392 45.4881 295.479C44.3512 293.874 43.3066 292.207 42.1998 290.582C41.9958 290.283 41.7317 289.988 41.4289 289.803C41.0994 289.602 40.7054 289.888 40.7505 290.349Z" fill="#1F1D1F"/>
<path d="M73.0023 228.679C73.0334 229.26 73.0087 229.688 73.0989 230.089C73.1429 230.286 73.3963 230.557 73.5691 230.568C73.7377 230.578 74.0597 230.317 74.0823 230.146C74.2143 229.113 74.2991 228.074 74.355 227.033C74.3721 226.704 74.1124 226.46 73.7774 226.537C73.5852 226.581 73.3372 226.801 73.2911 226.985C73.144 227.59 73.0764 228.216 73.0023 228.679Z" fill="#1F1D1F"/>
<path d="M478.007 370.005C476.073 370.005 474.392 370.005 472.705 370.005C459.519 338.392 446.344 306.806 433.127 275.121C432.837 276.111 434.739 291.312 435.917 299.414C437.1 307.547 438.044 315.716 439.106 323.867C440.16 331.958 441.229 340.045 442.302 348.211C441.813 348.263 441.511 348.318 441.209 348.321C439.966 348.331 438.723 348.325 437.365 348.325C433.957 322.144 430.564 296.09 427.173 270.036C427.05 270.026 426.927 270.016 426.804 270.005C417.258 303.156 407.712 336.307 398.139 369.549C396.497 369.549 394.916 369.549 393.201 369.549C393.254 369.106 393.247 368.759 393.338 368.441C396.68 356.897 400.047 345.36 403.376 333.814C410.677 308.484 417.957 283.148 425.251 257.818C434.831 224.544 444.416 191.271 453.997 157.998C454.852 155.027 455.483 152.009 455.631 148.915C455.904 143.151 454.862 137.692 451.614 132.811C450.899 131.737 450.084 130.699 449.159 129.807C441.273 122.201 433.353 114.632 425.44 107.054C425.056 106.686 424.654 106.336 424.272 105.987C423.429 106.585 419.329 112.176 417.894 114.659C420.341 118.975 419.745 123.621 419.011 128.217C417.693 136.462 415.036 144.338 412.121 152.133C411.673 153.331 410.846 154.023 409.713 154.467C406.996 155.529 404.2 155.594 401.4 154.984C396.148 153.841 391.784 151.198 388.433 146.968C387.06 145.234 386.068 143.307 385.598 141.107C385.286 139.647 385.494 138.349 386.37 137.168C387.942 135.049 389.492 132.913 391.131 130.847C394.946 126.045 398.92 121.384 403.59 117.369C404.03 116.99 404.482 116.623 404.941 116.266C407.438 114.325 410.066 112.659 413.385 112.41C414.018 111.524 414.642 110.655 415.262 109.783C417.124 107.156 418.961 104.511 420.865 101.915C421.298 101.325 421.888 100.743 422.537 100.44C423.978 99.7679 425.28 100.121 426.448 101.248C430.632 105.285 434.845 109.292 439.061 113.297C443.211 117.24 447.404 121.138 451.532 125.103C456.484 129.861 459.396 135.67 460.245 142.491C460.981 148.392 460.218 154.12 458.563 159.824C449.354 191.577 440.235 223.358 431.061 255.122C430.769 256.132 430.827 257.007 431.226 257.958C437.92 273.954 444.599 289.956 451.275 305.958C457.917 321.878 464.549 337.803 471.195 353.722C473.192 358.505 475.225 363.273 477.238 368.049C477.477 368.619 477.69 369.196 478.007 370.005Z" fill="#E72C05"/>
<path d="M393.528 137.012C396.957 137.141 400.079 138.282 403.033 139.945C405.286 141.213 407.369 142.718 408.939 144.802C409.528 145.583 410.029 146.475 410.36 147.393C410.945 149.018 410.35 150.311 408.823 151.124C407.688 151.727 406.439 151.919 405.205 151.799C399.167 151.212 394.116 148.635 390.172 144.018C389.497 143.226 389.012 142.192 388.702 141.189C388.22 139.637 388.852 138.455 390.278 137.674C391.296 137.117 392.393 136.997 393.528 137.012Z" fill="#88D9F8"/>
<path d="M438.361 214.448C437.961 214.254 437.709 214.132 437.406 213.985C437.966 211.891 438.476 209.86 439.056 207.85C440.257 203.687 441.505 199.537 442.719 195.377C443.884 191.385 445.037 187.392 446.181 183.393C447.276 179.563 448.346 175.726 449.443 171.897C449.598 171.357 449.841 170.842 450.033 170.341C450.376 170.341 450.63 170.341 450.894 170.341C450.949 170.512 451.042 170.646 451.017 170.753C450.798 171.688 450.587 172.626 450.318 173.547C448.8 178.759 447.255 183.964 445.742 189.177C444.607 193.086 443.509 197.005 442.394 200.921C441.351 204.584 440.317 208.249 439.258 211.906C439.027 212.701 438.709 213.47 438.361 214.448Z" fill="#1F1D1F"/>
<path d="M444.965 125.375C445.415 125.375 445.668 125.375 445.978 125.375C447.584 126.646 448.81 128.332 450.065 129.98C451.723 132.157 453.121 134.5 454.245 137.001C455.236 139.208 455.956 141.479 456.35 143.885C456.73 146.197 456.526 148.43 456.044 150.679C455.93 151.21 455.766 151.617 455.031 151.423C454.801 150.518 454.874 149.594 455.015 148.69C455.24 147.242 455.191 145.82 455.013 144.363C454.62 141.167 453.463 138.251 451.971 135.452C450.831 133.311 449.493 131.291 447.945 129.417C447.045 128.329 446.137 127.249 445.25 126.151C445.125 125.997 445.101 125.76 444.965 125.375Z" fill="#1F1D1F"/>
<path d="M455.259 152.785C455.9 153.346 455.508 153.982 455.468 154.549C455.437 155.005 455.273 155.508 454.661 155.74C454.252 155.447 454.064 155.005 454.161 154.516C454.269 153.972 454.472 153.438 454.701 152.93C454.755 152.813 455.09 152.825 455.259 152.785Z" fill="#1F1D1F"/>
<path d="M329.166 82.0104C329.158 80.1445 329.226 78.2648 329.029 76.415C328.294 69.4917 324.754 63.6107 316.597 61.8222C315.371 61.5538 314.116 61.4368 312.861 61.4249C302.745 61.3262 292.629 61.2317 282.513 61.1963C265.273 61.134 248.033 61.1029 230.791 61.0782C211.193 61.0492 191.593 61.0417 171.992 61.0224C168.525 61.0191 165.059 60.9558 161.592 61.0063C153.274 61.1254 144.957 61.3026 136.639 61.44C135.128 61.4658 133.615 61.4775 132.105 61.4228C128.695 61.2983 125.482 61.9843 122.555 63.7062C118.545 66.0681 116.267 69.6774 115.468 74.1766C115.092 76.3034 114.988 78.4988 114.976 80.6642C114.896 94.7428 115.089 272.606 115.105 312.693C115.108 320.373 120.808 326.967 128.44 327.816C128.626 327.835 128.813 327.854 129.002 327.87C130.769 328.012 132.548 328.102 134.322 328.109C162.454 328.223 190.586 328.362 218.718 328.402C239.292 328.431 259.866 328.335 280.44 328.272C291.062 328.239 301.685 328.177 312.306 328.089C314.891 328.067 317.448 327.743 319.881 326.783C325.275 324.651 328.192 320.494 329.495 315.018C330.002 312.885 330.119 310.719 330.104 308.534C330.001 294.135 329.882 312.009 329.826 297.61C329.751 278.499 329.258 107.166 329.166 82.0104Z" fill="#0757C6"/>
<path d="M341.168 82.0104C341.16 80.1445 341.227 78.2648 341.032 76.415C340.296 69.4917 336.757 63.6107 328.6 61.8222C327.374 61.5538 326.119 61.4368 324.864 61.4249C314.748 61.3262 304.632 61.2317 294.515 61.1963C277.275 61.134 260.035 61.1029 242.795 61.0782C223.194 61.0492 203.594 61.0417 183.995 61.0224C180.529 61.0191 177.061 60.9558 173.595 61.0063C165.278 61.1254 156.96 61.3026 148.642 61.44C147.13 61.4658 145.616 61.4775 144.106 61.4228C140.696 61.2983 137.483 61.9843 134.558 63.7062C130.546 66.0681 128.268 69.6774 127.471 74.1766C127.094 76.3034 126.991 78.4988 126.978 80.6642C126.899 94.7428 127.092 272.606 127.106 312.693C127.109 320.373 132.81 326.967 140.443 327.816C140.629 327.835 140.816 327.854 141.005 327.87C142.773 328.012 144.55 328.102 146.325 328.109C174.456 328.223 202.589 328.362 230.722 328.402C251.294 328.431 271.869 328.335 292.442 328.272C303.064 328.239 313.687 328.177 324.308 328.089C326.892 328.067 329.45 327.743 331.883 326.783C337.277 324.651 340.194 320.494 341.496 315.018C342.004 312.885 342.121 310.719 342.105 308.534C342.003 294.135 341.884 312.009 341.828 297.61C341.753 278.499 341.26 107.166 341.168 82.0104Z" fill="#F5F5F4"/>
<path d="M258.746 56.0474C262.19 51.6372 269.616 52.1547 272.41 56.0678C272.021 57.0511 271.601 57.9765 271.297 58.9385C271.141 59.4301 271.16 59.9873 271.168 60.5144C271.17 60.6787 271.366 60.9342 271.521 60.9761C271.688 61.0222 272.005 60.9278 272.09 60.7914C272.295 60.4597 272.446 60.0786 272.541 59.6985C272.733 58.9234 273.07 58.2235 273.475 57.3947C273.678 57.6481 273.8 57.765 273.878 57.9068C276.554 62.7066 274.779 68.4448 269.947 70.7916C269.747 70.8882 269.547 70.9848 269.356 71.0943C268.972 71.3155 268.937 71.6719 269.098 72.0154C269.265 72.3697 269.615 72.5683 269.983 72.3676C270.951 71.8372 271.982 71.3659 272.827 70.6756C276.872 67.368 277.724 61.544 275.015 56.9406C274.839 56.641 274.659 56.3437 274.494 56.0656C277.603 51.8487 284.974 51.9281 288.154 56.0302C287.777 56.991 287.364 57.9143 287.059 58.8719C286.901 59.3646 286.89 59.9186 286.902 60.4436C286.906 60.6379 287.149 60.9643 287.313 60.9836C287.512 61.0072 287.821 60.8193 287.938 60.6325C288.12 60.3416 288.189 59.9766 288.291 59.6384C288.517 58.8944 288.757 58.1601 289.285 57.3818C289.845 58.2331 290.15 58.9878 290.411 59.7898C291.907 64.3814 289.548 69.0062 285.625 70.8184C284.771 71.2135 284.573 71.5978 284.856 72.0734C285.107 72.4964 285.473 72.5404 286.271 72.1443C290.112 70.2344 292.118 67.1179 292.293 62.8398C292.384 60.6057 291.765 58.553 290.562 56.6722C290.442 56.4854 290.346 56.2846 290.242 56.0957C293.182 51.8423 300.831 51.8981 303.882 56.0624C303.495 57.0425 303.075 57.968 302.77 58.9299C302.614 59.4215 302.632 59.9777 302.637 60.5048C302.638 60.6712 302.855 60.9685 302.976 60.9707C303.201 60.9739 303.516 60.8644 303.635 60.6916C303.83 60.4103 303.926 60.0496 304.012 59.7082C304.208 58.9342 304.497 58.2095 305.02 57.4162C305.266 57.8338 305.486 58.1473 305.648 58.4897C307.854 63.1275 306.073 68.3879 301.66 70.6617C301.384 70.8034 301.105 70.9397 300.833 71.09C300.446 71.3047 300.408 71.6633 300.564 72.0079C300.725 72.3654 301.078 72.5694 301.444 72.3708C302.414 71.8426 303.444 71.3713 304.29 70.681C308.339 67.3755 309.193 61.5536 306.491 56.9481C306.314 56.6475 306.132 56.349 305.934 56.0184C307.649 54.0463 309.747 53.0189 312.346 52.9555C316.593 52.8514 319.579 54.8514 321.392 58.5477C323.639 63.1275 321.798 68.3568 317.462 70.622C317.186 70.7658 316.898 70.8882 316.636 71.0525C316.224 71.3133 316.098 71.7105 316.322 72.0573C316.535 72.3922 316.863 72.5608 317.232 72.3515C318.192 71.8061 319.225 71.3402 320.067 70.6445C324.421 67.047 324.964 60.6078 321.608 56.0141C319.992 53.8026 317.835 52.3554 315.229 51.7263C311.526 50.8331 308.215 51.7607 305.406 54.3672C305.276 54.4875 305.148 54.6099 304.929 54.816C302.754 52.7322 300.166 51.4633 297.134 51.4096C294.061 51.3549 291.436 52.5293 289.197 54.8182C287.019 52.7333 284.432 51.4644 281.4 51.4096C278.327 51.3549 275.702 52.5293 273.462 54.8182C271.285 52.7333 268.698 51.4644 265.666 51.4096C262.593 51.3549 259.968 52.5283 257.727 54.8182C255.551 52.7333 252.963 51.4654 249.932 51.4096C246.859 51.3549 244.234 52.5283 241.992 54.8182C239.818 52.729 237.228 51.4665 234.198 51.4096C231.126 51.3538 228.5 52.5272 226.258 54.8182C224.083 52.7301 221.494 51.4665 218.464 51.4096C215.392 51.3538 212.766 52.5261 210.523 54.8182C208.31 52.7011 205.681 51.4279 202.598 51.4096C199.524 51.3914 196.913 52.5991 194.696 54.9158C194.242 54.5755 193.79 54.247 193.348 53.9024C191.502 52.4617 189.366 51.7521 187.069 51.6791C184.301 51.591 181.86 52.5572 179.777 54.3952C179.545 54.5991 179.328 54.8214 179.049 55.0876C176.847 52.9695 174.245 51.7231 171.201 51.6769C168.126 51.6286 165.515 52.8364 163.336 55.0661C161.996 53.9421 160.622 52.9362 158.972 52.3264C153.274 50.2212 146.889 53.4408 145.402 59.2197C145.272 59.7243 145.279 60.2729 145.29 60.8C145.294 60.96 145.504 61.2112 145.661 61.2487C145.83 61.2885 146.14 61.1843 146.225 61.0448C146.425 60.7098 146.557 60.3255 146.669 59.9465C147.163 58.2653 147.92 56.7602 149.256 55.5568C150.872 54.1032 152.707 53.3098 154.893 53.2196C157.721 53.1026 160.116 53.998 162.089 56.0238C162.18 56.1172 162.245 56.2363 162.278 56.2836C161.891 57.2723 161.468 58.1966 161.174 59.1585C161.01 59.6932 161.042 60.2922 161.033 60.8633C161.031 60.9922 161.207 61.2165 161.325 61.2337C161.516 61.2627 161.826 61.2208 161.91 61.0931C162.125 60.7689 162.296 60.3931 162.388 60.0152C162.575 59.2348 162.902 58.5251 163.334 57.7329C164.179 58.567 164.439 59.589 164.69 60.5842C165.805 64.9998 163.622 69.2016 159.846 71.0353C159.648 71.1319 159.451 71.235 159.254 71.3337C158.857 71.5334 158.815 71.8802 158.924 72.2419C159.035 72.608 159.469 72.7551 159.918 72.6048C160.128 72.5361 160.327 72.4341 160.526 72.3375C163.458 70.9075 165.336 68.5983 166.118 65.4485C166.861 62.4651 166.341 59.6513 164.747 57.0297C164.61 56.8031 164.482 56.5713 164.353 56.348C167.258 52.2427 174.618 52.0677 178.015 56.2868C177.648 57.2197 177.232 58.1376 176.933 59.093C176.767 59.6277 176.768 60.2235 176.759 60.7936C176.757 60.9514 176.968 61.2069 177.122 61.2466C177.291 61.2885 177.604 61.1886 177.689 61.0491C177.892 60.7163 178.027 60.333 178.136 59.954C178.352 59.194 178.6 58.4554 179.13 57.7275C179.279 57.9207 179.397 58.041 179.476 58.1827C182.147 62.9965 180.354 68.7293 175.526 71.0632C175.326 71.1587 175.126 71.2554 174.936 71.3681C174.557 71.5935 174.525 71.9499 174.694 72.2924C174.869 72.6456 175.195 72.7948 175.588 72.6381C176.668 72.2065 177.657 71.6257 178.544 70.8667C182.495 67.485 183.306 61.6223 180.524 57.0866C180.386 56.86 180.248 56.6335 180.115 56.4134C182.665 52.3457 190.293 52.0065 193.61 56.1955C193.302 57.0372 192.941 57.8896 192.687 58.772C192.531 59.3131 192.508 59.9014 192.49 60.4704C192.484 60.64 192.678 60.9514 192.799 60.961C193.024 60.9782 193.351 60.8859 193.472 60.7206C193.672 60.4457 193.748 60.0775 193.869 59.7447C194.119 59.0437 194.363 58.3416 194.669 57.4698C195.581 58.5208 195.939 59.6255 196.201 60.756C197.237 65.2155 194.941 69.3047 191.278 71.0557C191.078 71.1502 190.88 71.2489 190.687 71.3573C190.301 71.5742 190.262 71.9328 190.42 72.2763C190.583 72.6327 190.913 72.7991 191.306 72.6435C192.387 72.2162 193.378 71.6375 194.265 70.8796C198.226 67.4979 199.04 61.647 196.271 57.1016C196.089 56.8031 195.909 56.5015 195.746 56.2277C198.475 52.0655 205.986 51.6834 209.487 56.0216C209.118 56.9567 208.7 57.8735 208.402 58.8289C208.236 59.3636 208.238 59.9605 208.231 60.5295C208.228 60.6873 208.44 60.9417 208.597 60.9804C208.765 61.0222 209.078 60.9192 209.161 60.7807C209.363 60.4468 209.496 60.0625 209.606 59.6846C209.824 58.9245 210.07 58.1848 210.604 57.4602C210.751 57.6556 210.869 57.7769 210.948 57.9197C213.619 62.7388 211.817 68.4706 206.992 70.7969C206.793 70.8936 206.591 70.9891 206.403 71.104C206.027 71.3305 205.996 71.6869 206.166 72.0283C206.342 72.3815 206.669 72.5275 207.063 72.3697C208.141 71.936 209.13 71.3574 210.017 70.5984C213.965 67.2167 214.776 61.3518 211.993 56.8171C211.854 56.5906 211.717 56.363 211.583 56.1429C214.135 52.0924 221.815 51.6565 225.211 56.0345C224.832 57.0018 224.41 57.925 224.116 58.8869C223.952 59.4216 223.983 60.0206 223.971 60.5917C223.969 60.7216 224.142 60.9471 224.259 60.9664C224.45 60.9954 224.761 60.9568 224.846 60.8301C225.062 60.5069 225.235 60.1312 225.327 59.7533C225.515 58.9728 225.841 58.2643 226.28 57.4473C226.491 57.7135 226.674 57.881 226.782 58.0871C229.288 62.8838 227.518 68.4308 222.791 70.7669C222.554 70.885 222.245 70.9558 222.103 71.148C221.942 71.3638 221.821 71.7202 221.882 71.9661C221.974 72.3386 222.332 72.5104 222.732 72.3944C222.984 72.3214 223.223 72.1904 223.461 72.0734C226.434 70.6155 228.321 68.273 229.083 65.0566C229.781 62.1076 229.251 59.3464 227.69 56.7677C227.599 56.6164 227.507 56.4639 227.42 56.3104C227.376 56.2331 227.341 56.1504 227.303 56.0699C230.172 51.9926 237.533 51.7854 240.954 56.0152C240.588 56.9481 240.173 57.866 239.875 58.8204C239.708 59.3561 239.708 59.9519 239.699 60.5209C239.696 60.6798 239.903 60.9374 240.057 60.9782C240.225 61.0222 240.54 60.9245 240.625 60.786C240.829 60.4543 240.969 60.0721 241.073 59.6921C241.285 58.9288 241.546 58.1945 242.034 57.5052C242.169 57.6255 242.293 57.6899 242.351 57.793C245.102 62.6347 243.353 68.4222 238.472 70.7948C238.272 70.8914 238.071 70.987 237.88 71.0986C237.5 71.3208 237.466 71.6784 237.631 72.0208C237.803 72.3751 238.153 72.5673 238.52 72.3654C239.486 71.8329 240.517 71.3627 241.362 70.6713C245.405 67.3626 246.254 61.5354 243.542 56.9352C243.366 56.6357 243.187 56.3383 243.023 56.0635C246.159 51.8337 253.529 51.9432 256.683 56.0323C256.304 56.9953 255.884 57.9175 255.588 58.8794C255.425 59.413 255.452 60.012 255.438 60.5821C255.435 60.7141 255.603 60.9428 255.721 60.9632C255.911 60.9965 256.225 60.9621 256.31 60.8365C256.528 60.5144 256.665 60.1333 256.803 59.764C257.075 59.0265 257.326 58.2814 257.65 57.3582C258.336 57.9991 258.601 58.655 258.806 59.2852C259.964 62.8494 259.472 66.1195 256.819 68.8807C256.126 69.5999 255.21 70.1088 254.384 70.695C254.134 70.8732 253.77 70.9279 253.581 71.1459C253.409 71.3434 253.293 71.7105 253.35 71.9575C253.438 72.3364 253.794 72.4996 254.196 72.3976C254.408 72.3429 254.611 72.2409 254.809 72.1421C258.648 70.2237 260.651 67.1082 260.823 62.8301C260.913 60.596 260.294 58.5434 259.087 56.6647C258.967 56.4779 258.872 56.276 258.746 56.0474Z" fill="#E72C05"/>
<path d="M179.647 327.831C193.127 327.831 206.607 327.831 220.088 327.83C220.507 327.83 220.93 327.84 221.345 327.795C221.708 327.755 221.992 327.536 221.995 327.146C221.997 326.761 221.74 326.528 221.359 326.495C220.984 326.461 220.604 326.468 220.226 326.468C194.064 326.469 167.901 326.471 141.739 326.472C140.063 326.472 138.387 326.491 136.737 326.101C133.253 325.276 130.757 323.17 129.012 320.121C127.618 317.688 126.853 315.049 126.535 312.266C126.223 309.513 125.959 306.754 126.083 303.986C126.536 293.917 126.238 316.115 126.336 306.043C126.463 293.113 126.501 280.182 126.571 267.253C126.592 263.431 126.574 259.609 126.605 255.787C126.637 252.053 126.713 248.319 126.758 244.585C126.764 244.214 126.766 243.814 126.636 243.478C126.55 243.254 126.225 242.987 126.009 242.99C125.793 242.992 125.465 243.265 125.391 243.487C125.263 243.872 125.263 244.308 125.263 244.723C125.237 252.954 125.219 261.185 125.2 269.416C125.195 271.221 125.189 273.028 125.178 274.833C125.094 290.116 125.015 273.124 124.922 288.407C124.885 294.451 124.754 300.495 124.787 306.537C124.807 309.884 125.015 313.236 125.979 316.485C126.751 319.093 127.897 321.506 129.739 323.528C131.689 325.669 134.097 327.066 136.965 327.564C138.031 327.75 139.13 327.824 140.214 327.826C153.358 327.842 166.504 327.835 179.647 327.835C179.647 327.834 179.647 327.833 179.647 327.831Z" fill="#1F1D1F"/>
<path d="M127.097 133.087C127.097 121.377 127.036 109.666 127.137 97.958C127.163 94.8318 127.145 91.668 127.816 88.574C127.949 87.961 128.099 87.3534 128.234 86.7415C128.305 86.414 128.413 86.0802 128.398 85.7538C128.389 85.5412 128.194 85.1666 128.074 85.1644C127.831 85.158 127.436 85.2954 127.363 85.4779C127.018 86.3271 126.684 87.1945 126.489 88.0866C125.762 91.4211 125.685 94.8146 125.685 98.2113C125.685 105.975 125.7 113.74 125.676 121.504C125.631 137.03 125.565 152.555 125.509 168.08C125.507 168.541 125.496 169.007 125.556 169.461C125.611 169.875 125.87 170.142 126.332 170.116C126.737 170.092 126.942 169.824 126.989 169.471C127.044 169.057 127.034 168.634 127.034 168.215C127.036 156.505 127.036 144.796 127.036 133.087C127.056 133.087 127.076 133.087 127.097 133.087Z" fill="#1F1D1F"/>
<path d="M340.633 167.898C340.633 171.635 340.62 175.371 340.635 179.107C340.687 191.656 340.746 204.205 340.809 216.753C340.811 217.168 340.823 217.598 340.936 217.99C340.988 218.167 341.29 218.34 341.501 218.373C341.63 218.395 341.89 218.169 341.933 218.01C342.042 217.614 342.107 217.193 342.107 216.782C342.105 209.52 342.104 202.257 342.076 194.995C342.039 185.846 341.972 176.698 341.929 167.549C341.91 163.645 341.918 159.741 341.914 155.837C341.913 155.542 341.904 155.249 341.905 154.955C341.908 154.517 341.653 154.384 341.26 154.378C340.872 154.371 340.601 154.482 340.596 154.926C340.592 155.262 340.588 155.598 340.588 155.934C340.588 159.923 340.588 163.91 340.588 167.898C340.603 167.898 340.618 167.898 340.633 167.898Z" fill="#1F1D1F"/>
<path d="M341.417 95.1999C341.417 90.0801 341.401 84.9592 341.422 79.8395C341.435 76.6682 341.043 73.5699 339.896 70.5994C338.449 66.857 336.082 63.9208 332.375 62.1967C330.441 61.297 328.399 60.9191 326.269 60.9964C326.145 61.0007 326.017 60.9943 325.892 61.0136C325.543 61.0684 325.201 61.1789 325.219 61.6084C325.237 62.0528 325.608 62.0861 325.952 62.1172C326.495 62.1634 327.036 62.2396 327.578 62.2643C331.73 62.4543 334.761 64.5585 337.05 67.8693C338.528 70.0068 339.393 72.418 339.766 74.9709C340.007 76.622 340.107 78.3064 340.112 79.9769C340.142 90.7167 340.127 101.456 340.135 112.194C340.135 112.691 340.187 113.2 340.302 113.682C340.346 113.868 340.688 114.151 340.803 114.114C341.032 114.038 341.291 113.802 341.367 113.575C341.467 113.271 341.413 112.912 341.413 112.576C341.415 106.785 341.414 100.993 341.414 95.1999C341.415 95.1999 341.416 95.1999 341.417 95.1999Z" fill="#1F1D1F"/>
<path d="M341.93 228.625C341.93 226.654 341.942 224.682 341.926 222.711C341.919 221.9 341.763 221.67 341.332 221.66C340.85 221.648 340.606 221.955 340.595 222.757C340.567 224.644 340.574 226.531 340.571 228.42C340.568 230.307 340.568 232.194 340.567 234.082C340.567 234.376 340.553 234.671 340.578 234.963C340.634 235.556 340.884 235.871 341.276 235.833C341.827 235.777 341.915 235.36 341.917 234.917C341.922 232.819 341.919 230.722 341.919 228.625C341.923 228.625 341.927 228.625 341.93 228.625Z" fill="#1F1D1F"/>
<path d="M125.47 235.2C125.47 236.456 125.457 237.713 125.476 238.97C125.487 239.73 125.74 240.109 126.168 240.12C126.608 240.131 126.845 239.778 126.848 238.983C126.853 236.47 126.85 233.958 126.824 231.445C126.814 230.517 126.474 229.928 126.089 230.069C125.466 230.294 125.451 230.887 125.444 231.431C125.433 232.687 125.441 233.943 125.441 235.2C125.451 235.2 125.461 235.2 125.47 235.2Z" fill="#1F1D1F"/>
<path d="M340.014 118.109C340.06 118.418 340.081 118.834 340.2 119.222C340.242 119.363 340.518 119.515 340.684 119.511C340.838 119.505 341.079 119.328 341.124 119.179C341.377 118.334 341.461 117.466 341.183 116.612C341.125 116.433 340.842 116.201 340.68 116.216C340.495 116.231 340.224 116.465 340.177 116.652C340.066 117.087 340.067 117.55 340.014 118.109Z" fill="#1F1D1F"/>
<path d="M301.482 154.378H270.027V122.923H301.482V154.378ZM268.738 155.666H302.77V121.634H268.738V155.666Z" fill="#0757C6"/>
<path d="M162.296 122.922H252.206C252.562 122.922 252.85 122.634 252.85 122.278C252.85 121.922 252.562 121.634 252.206 121.634H162.296C161.94 121.634 161.652 121.922 161.652 122.278C161.652 122.634 161.94 122.922 162.296 122.922Z" fill="#0757C6"/>
<path d="M162.296 138.846H252.206C252.562 138.846 252.85 138.559 252.85 138.202C252.85 137.847 252.562 137.558 252.206 137.558H162.296C161.94 137.558 161.652 137.847 161.652 138.202C161.652 138.559 161.94 138.846 162.296 138.846Z" fill="#0757C6"/>
<path d="M178.131 146.809H252.206C252.562 146.809 252.85 146.52 252.85 146.165C252.85 145.809 252.562 145.521 252.206 145.521H178.131C177.775 145.521 177.487 145.809 177.487 146.165C177.487 146.52 177.775 146.809 178.131 146.809Z" fill="#0757C6"/>
<path d="M162.296 130.885H215.706C216.061 130.885 216.349 130.596 216.349 130.241C216.349 129.884 216.061 129.597 215.706 129.597H162.296C161.94 129.597 161.652 129.884 161.652 130.241C161.652 130.596 161.94 130.885 162.296 130.885Z" fill="#0757C6"/>
<path d="M222.415 130.885H252.206C252.562 130.885 252.85 130.596 252.85 130.241C252.85 129.884 252.562 129.597 252.206 129.597H222.415C222.059 129.597 221.771 129.884 221.771 130.241C221.771 130.596 222.059 130.885 222.415 130.885Z" fill="#0757C6"/>
<path d="M285.767 146.714L296.1 136.381C296.519 135.962 296.519 135.282 296.1 134.863C295.68 134.444 295.001 134.444 294.582 134.863L285.859 143.585L258.837 113.169C258.444 112.726 257.766 112.686 257.322 113.08C256.879 113.473 256.839 114.153 257.232 114.595L285.767 146.714Z" fill="#FAD04B"/>
<path d="M301.482 212.682H270.027V181.227H301.482V212.682ZM268.738 213.971H302.77V179.939H268.738V213.971Z" fill="#0757C6"/>
<path d="M162.296 181.227H252.206C252.562 181.227 252.85 180.939 252.85 180.583C252.85 180.227 252.562 179.939 252.206 179.939H162.296C161.94 179.939 161.652 180.227 161.652 180.583C161.652 180.939 161.94 181.227 162.296 181.227Z" fill="#0757C6"/>
<path d="M162.296 197.151H252.206C252.562 197.151 252.85 196.864 252.85 196.507C252.85 196.152 252.562 195.863 252.206 195.863H162.296C161.94 195.863 161.652 196.152 161.652 196.507C161.652 196.864 161.94 197.151 162.296 197.151Z" fill="#0757C6"/>
<path d="M178.131 205.114H252.206C252.562 205.114 252.85 204.825 252.85 204.47C252.85 204.113 252.562 203.826 252.206 203.826H178.131C177.775 203.826 177.487 204.113 177.487 204.47C177.487 204.825 177.775 205.114 178.131 205.114Z" fill="#0757C6"/>
<path d="M162.296 189.19H215.706C216.061 189.19 216.349 188.901 216.349 188.546C216.349 188.189 216.061 187.902 215.706 187.902H162.296C161.94 187.902 161.652 188.189 161.652 188.546C161.652 188.901 161.94 189.19 162.296 189.19Z" fill="#0757C6"/>
<path d="M222.415 189.19H252.206C252.562 189.19 252.85 188.901 252.85 188.546C252.85 188.189 252.562 187.902 252.206 187.902H222.415C222.059 187.902 221.771 188.189 221.771 188.546C221.771 188.901 222.059 189.19 222.415 189.19Z" fill="#0757C6"/>
<path d="M301.482 272.119H270.027V240.664H301.482V272.119ZM268.738 273.407H302.77V239.375H268.738V273.407Z" fill="#0757C6"/>
<path d="M162.296 240.664H252.206C252.562 240.664 252.85 240.376 252.85 240.018C252.85 239.663 252.562 239.375 252.206 239.375H162.296C161.94 239.375 161.652 239.663 161.652 240.018C161.652 240.376 161.94 240.664 162.296 240.664Z" fill="#0757C6"/>
<path d="M162.296 256.588H252.206C252.562 256.588 252.85 256.3 252.85 255.944C252.85 255.587 252.562 255.299 252.206 255.299H162.296C161.94 255.299 161.652 255.587 161.652 255.944C161.652 256.3 161.94 256.588 162.296 256.588Z" fill="#0757C6"/>
<path d="M178.131 264.55H252.206C252.562 264.55 252.85 264.263 252.85 263.905C252.85 263.55 252.562 263.262 252.206 263.262H178.131C177.775 263.262 177.487 263.55 177.487 263.905C177.487 264.263 177.775 264.55 178.131 264.55Z" fill="#0757C6"/>
<path d="M162.296 248.626H215.706C216.061 248.626 216.349 248.338 216.349 247.981C216.349 247.625 216.061 247.338 215.706 247.338H162.296C161.94 247.338 161.652 247.625 161.652 247.981C161.652 248.338 161.94 248.626 162.296 248.626Z" fill="#0757C6"/>
<path d="M222.415 248.626H252.206C252.562 248.626 252.85 248.338 252.85 247.981C252.85 247.625 252.562 247.338 252.206 247.338H222.415C222.059 247.338 221.771 247.625 221.771 247.981C221.771 248.338 222.059 248.626 222.415 248.626Z" fill="#0757C6"/>
<path d="M285.767 264.462L296.1 254.129C296.519 253.709 296.519 253.03 296.1 252.61C295.68 252.19 295.001 252.19 294.582 252.61L285.859 261.334L258.837 230.917C258.444 230.473 257.766 230.434 257.322 230.828C256.879 231.221 256.839 231.9 257.232 232.342L285.767 264.462Z" fill="#FAD04B"/>
<path d="M131.758 370.148C131.758 363.676 176.793 358.43 232.343 358.43C287.894 358.43 332.927 363.676 332.927 370.148C332.927 376.622 287.894 381.867 232.343 381.867C176.793 381.867 131.758 376.622 131.758 370.148Z" fill="#0757C6"/>
<path d="M310.297 232.565L320.63 222.232C321.049 221.812 321.049 221.132 320.63 220.713C320.21 220.293 319.531 220.293 319.112 220.713L310.389 229.435L283.367 199.019C282.974 198.575 282.295 198.535 281.852 198.93C281.408 199.323 281.369 200.003 281.762 200.445L310.297 232.565Z" fill="#FAD04B"/>
<path d="M377.38 274.9C384.615 275.169 391.644 274.337 398.265 271.27C402.599 269.261 406.123 266.308 408.558 262.143C408.728 261.853 408.885 261.556 409.035 261.256C409.09 261.147 409.108 261.019 409.196 260.714C408.628 259.709 407.997 258.595 407.318 257.396C407.077 257.601 406.929 257.684 406.844 257.807C403.678 262.42 399.35 265.684 394.55 268.396C389.513 271.243 384.123 273.188 378.53 274.603C378.145 274.701 377.763 274.8 377.38 274.9Z" fill="#FFBFBF"/>
<path d="M313.144 246.28C314.577 243.195 316.647 240.894 319.483 239.139C319.321 238.536 319.192 237.93 318.997 237.346C318.185 234.926 317.358 232.511 316.523 230.099C316.346 229.586 316.183 229.052 315.902 228.597C315.12 227.33 314.027 227.358 313.277 228.625C313.172 228.802 313.09 228.995 312.917 229.336C312.158 228.693 311.427 228.095 310.723 227.467C309.705 226.559 308.586 225.862 307.244 225.532C305.425 225.086 304.332 225.757 303.891 227.566C303.041 231.053 303.954 234.2 305.715 237.179C306.932 239.237 308.195 241.271 309.869 243.003C310.914 244.083 311.992 245.129 313.144 246.28Z" fill="#FFBFBF"/>
<path d="M342.672 265.511C342.672 270.083 342.672 274.527 342.672 279.14C344 279.336 345.265 279.603 346.542 279.701C350.775 280.025 354.818 279.218 358.652 277.424C363.39 275.208 367.618 272.314 370.741 268.014C370.865 267.843 370.946 267.643 371.086 267.389C373.615 269.743 375.662 272.166 377.42 274.881C385.981 273.006 394 270.011 401.059 264.788C404.362 262.343 407.271 259.499 409.178 255.803C409.94 254.325 410.562 252.755 411.052 251.166C411.352 250.191 410.882 249.191 410.427 248.282C407.922 243.279 404.648 238.839 400.594 234.983C396.094 230.704 391.001 227.386 385.048 225.474C382.472 224.646 379.818 224.168 377.13 224.192C371.773 224.24 366.99 225.913 363.102 229.73C360.137 232.643 357.26 235.648 354.259 238.523C351.867 240.814 349.374 243.004 346.875 245.179C343.529 248.091 339.656 248.647 335.434 247.627C330.928 246.538 327.042 244.288 323.487 241.395C322.707 240.759 321.932 240.105 321.236 239.381C320.582 238.701 319.89 238.554 319.09 238.974C318.463 239.302 317.834 239.655 317.279 240.089C315.404 241.554 313.861 243.302 312.884 245.506C312.551 246.258 312.559 246.924 313.081 247.62C318.137 254.339 324.153 259.891 332.025 263.167C335.143 264.465 338.382 265.302 341.785 265.382C342.028 265.387 342.269 265.451 342.672 265.511Z" fill="#E72C05"/>
<path d="M373.529 224.229C373.887 222.748 374.315 221.218 374.603 219.663C374.722 219.019 374.915 218.479 375.281 217.949C376.435 216.278 377.116 214.468 376.712 212.388C376.313 210.327 374.636 209.363 372.675 210.092C372.136 210.291 371.627 210.576 371.06 210.842C370.908 210.168 370.831 209.55 370.626 208.976C369.876 206.886 367.98 206.175 366.083 207.327C365.234 207.843 364.507 208.56 363.648 209.246C362.115 209.182 360.451 209.113 358.76 209.043C358.4 208.455 358.384 207.575 357.419 207.498C356.582 207.64 356.241 208.228 356.07 209.047C355.248 212.98 355.063 216.956 355.368 220.941C355.543 223.242 356.151 225.487 357.05 227.624C357.322 228.269 357.704 228.905 358.168 229.427C359.584 231.021 361.713 231.106 363.312 229.701C367.03 226.44 368.393 225.7 373.529 224.229Z" fill="#FFBFBF"/>
<path d="M352.835 210.15C355.409 210.15 357.795 210.126 360.181 210.158C362.521 210.188 364.881 210.095 367.208 210.875C367.93 211.822 367.94 213.244 369.089 214.106C369.428 213.417 369.704 212.739 370.08 212.123C370.715 211.079 371.594 210.337 372.875 210.221C374.164 210.104 375.033 210.737 375.654 211.794C377.356 214.693 375.371 219.499 371.941 219.501C371.736 219.501 371.532 219.576 371.285 219.623C368.765 222.613 367.38 226.021 367.562 229.993C367.628 231.42 368.208 232.672 369.037 233.81C371.539 237.247 377.302 239.2 381.558 234.907C382.059 234.403 382.486 233.825 382.935 233.271C384.752 231.025 387.082 230.1 389.941 230.582C391.673 230.876 393.378 231.294 395.175 231.012C397.844 230.594 399.875 229.225 401.264 226.974C403.734 222.97 404.09 218.714 402.445 214.313C401.302 211.258 399.452 208.647 396.88 206.67C392.539 203.33 388.768 199.377 384.732 195.71C382.039 193.263 378.998 191.473 375.388 190.816C371.6 190.127 368.03 190.529 364.959 193.149C364.665 193.4 364.224 193.605 363.845 193.615C358.867 193.75 355.804 196.51 353.872 200.833C352.879 203.052 352.559 205.418 352.523 207.818C352.511 208.587 352.723 209.357 352.835 210.15Z" fill="#1F1D1F"/>
<path d="M358.975 218.705C358.975 220.527 360.061 221.621 361.868 221.616C363.534 221.612 364.841 220.381 364.828 218.828C364.816 217.305 363.268 215.863 361.636 215.855C360.012 215.846 358.975 216.957 358.975 218.705Z" fill="#F57F62"/>
<path d="M352.512 220.631C352.165 222.083 352.741 222.75 354.252 222.832C354.66 222.853 355.181 222.856 355.609 222.837C355.25 218.735 355.279 216.013 355.501 212.618C355.455 212.59 352.931 218.881 352.512 220.631Z" fill="#E72C05"/>
<path d="M358.924 213.91C358.306 213.69 357.767 213.698 357.504 214.328C357.322 214.765 357.329 215.303 357.834 215.526C358.117 215.651 358.602 215.642 358.847 215.475C359.42 215.08 359.446 214.521 358.924 213.91Z" fill="#1F1D1F"/>
<path d="M369.225 367.374C368.619 364.906 367.972 362.646 367.52 360.35C366.725 356.304 366.494 352.218 366.71 348.084C367.218 338.345 369.962 329.273 374.67 320.784C378.713 313.495 383.994 307.252 390.772 302.332C391.041 302.136 391.324 301.958 391.732 301.683C392.409 302.66 393.1 303.594 393.726 304.571C398.356 311.792 401.666 319.621 404.367 327.727C406.52 334.184 408.143 340.779 409.123 347.516C409.739 351.753 410.071 356.024 409.999 360.31C409.975 361.732 409.794 363.151 409.687 364.525C410.133 365.365 410.888 365.648 411.662 365.838C414.639 366.566 417.564 366.204 420.527 365.403C420.66 364.929 420.803 364.494 420.902 364.049C424.048 349.947 425.199 335.672 424.597 321.248C424.043 307.97 422.022 294.933 418.196 282.191C416.103 275.217 413.461 268.459 410.125 261.981C409.933 261.608 409.731 261.238 409.521 260.874C409.485 260.811 409.391 260.778 409.286 260.705C409.184 260.821 409.053 260.926 408.979 261.062C405.963 266.592 401.195 269.961 395.401 272.049C391.951 273.293 388.386 274.066 384.731 274.329C382.348 274.503 379.954 274.55 377.566 274.573C376.719 274.582 376.051 274.788 375.387 275.323C369.03 280.458 363.906 286.647 359.964 293.769C349.84 312.053 346.705 331.455 351.023 351.966C352.198 357.542 354.212 362.833 356.912 367.863C357.372 368.719 357.968 369.191 358.902 369.394C361.636 369.99 364.324 369.829 366.969 368.959C367.892 368.655 368.709 368.144 369.225 367.374Z" fill="#1F1D1F"/>
<path d="M424.752 347.714C424.404 347.266 424.024 346.97 423.379 347.068C418.618 347.794 413.924 347.356 409.274 346.212C409.076 346.165 408.876 346.129 408.531 346.058C408.492 346.44 408.389 346.76 408.441 347.052C409.042 350.421 408.943 353.824 408.875 357.216C408.825 359.686 408.558 362.138 407.988 364.564C407.311 367.434 405.74 369.673 403.519 371.52C400.968 373.643 397.957 374.934 394.95 376.23C394.835 376.279 394.718 376.328 394.599 376.366C393.987 376.566 393.493 376.906 393.646 377.624C393.797 378.329 394.4 378.444 395.028 378.443C401.198 378.434 407.37 378.515 413.537 378.374C415.948 378.319 418.348 377.765 420.752 377.437C421.655 377.313 422.094 376.827 422.284 375.894C422.639 374.158 422.473 372.445 422.123 370.772C421.569 368.123 421.726 365.523 422.287 362.918C423.266 358.369 424.112 353.8 424.501 349.157C424.52 348.923 424.665 348.7 424.752 348.471C424.752 348.219 424.752 347.967 424.752 347.714Z" fill="#88D9F8"/>
<path d="M366.824 346.275C361.051 347.682 355.172 348.218 348.984 347.469C349.113 348.193 349.164 348.718 349.304 349.217C351.016 355.268 352.759 361.308 355.608 366.955C355.871 367.475 356.047 368.041 356.253 368.59C356.905 370.327 356.369 371.791 354.973 372.828C353.636 373.821 352.188 374.704 350.687 375.425C349.108 376.183 347.407 376.69 345.761 377.308C345.487 377.411 345.157 377.458 344.959 377.644C344.733 377.852 344.47 378.212 344.509 378.463C344.555 378.774 344.835 379.165 345.12 379.3C345.474 379.468 345.933 379.442 346.349 379.443C352.014 379.449 357.68 379.47 363.346 379.439C366.118 379.423 368.852 379.013 371.569 378.466C372.525 378.274 372.968 377.798 373.159 376.824C373.605 374.548 373.07 372.409 372.427 370.278C372.174 369.44 371.797 368.636 371.443 367.831C370.044 364.64 368.714 361.414 368.013 357.993C367.355 354.781 367.034 351.525 367.432 348.235C367.558 347.199 367.455 346.967 366.824 346.275Z" fill="#88D9F8"/>
<path d="M357.118 347.959C357.118 347.454 357.123 347.001 357.117 346.547C357.034 339.571 358.231 332.79 360.172 326.114C361.533 321.429 363.306 316.908 365.518 312.568C368.393 306.93 371.863 301.698 376.411 297.246C378.276 295.421 380.324 293.817 382.589 292.509C383.604 291.921 383.611 291.939 384.332 292.832C386.679 295.738 389.014 298.653 390.822 301.941C390.86 302.01 390.942 302.053 391.056 302.154C391.252 301.972 391.453 301.787 391.67 301.586C390.487 299.204 389.006 297.069 387.39 295.035C385.459 292.603 383.457 290.227 381.477 287.836C381.13 287.417 380.756 287.011 380.341 286.663C380.206 286.549 379.897 286.642 379.669 286.64C379.668 286.834 379.59 287.079 379.681 287.211C380.009 287.696 380.382 288.151 380.757 288.601C381.429 289.405 382.115 290.198 382.867 291.079C382.563 291.275 382.307 291.456 382.036 291.613C377.498 294.267 373.922 297.958 370.782 302.104C366.517 307.735 363.383 313.976 360.926 320.576C359.269 325.023 358.025 329.588 357.189 334.256C356.439 338.428 355.972 342.634 356.066 346.888C356.08 347.493 356.126 347.986 357.118 347.959Z" fill="white"/>
<path d="M399.367 270.349C399.028 270.526 398.811 270.639 398.549 270.776C398.657 270.997 398.735 271.184 398.836 271.359C400.295 273.905 401.874 276.39 403.195 279.007C406.818 286.18 409.478 293.722 411.535 301.484C412.804 306.269 413.788 311.116 414.49 316.01C414.996 319.532 415.29 323.087 415.609 326.634C415.959 330.521 416.159 334.422 416.03 338.325C415.946 340.922 415.717 343.513 415.553 346.107C415.537 346.358 415.465 346.618 415.511 346.857C415.543 347.022 415.703 347.239 415.854 347.288C416.105 347.373 416.364 347.273 416.409 346.952C416.503 346.289 416.602 345.624 416.659 344.956C417.086 339.97 417.081 334.973 416.838 329.981C416.612 325.336 416.133 320.712 415.488 316.099C414.224 307.059 412.024 298.26 408.892 289.696C406.51 283.182 403.637 276.893 399.847 271.057C399.713 270.849 399.569 270.646 399.367 270.349Z" fill="white"/>
<path d="M365.326 254.136C364.622 254.209 364.237 254.741 363.788 255.149C360.885 257.788 357.705 260.014 354.139 261.674C349.46 263.85 344.557 264.966 339.387 264.661C335.826 264.45 332.458 263.497 329.361 261.678C329.144 261.552 328.943 261.354 328.711 261.31C328.504 261.269 328.175 261.33 328.067 261.472C327.969 261.602 328.021 261.962 328.141 262.114C328.314 262.331 328.6 262.469 328.853 262.611C331.849 264.312 335.059 265.269 338.496 265.599C343.675 266.095 348.596 265.136 353.325 263.108C355.358 262.237 357.296 261.14 359.498 260.034C359.586 260.158 359.754 260.448 359.969 260.697C361.534 262.519 363.598 263.652 365.656 264.789C366.389 265.194 367.129 265.588 367.879 265.961C369.434 266.73 370.878 267.637 371.979 269.019C372.095 269.165 372.393 269.166 372.607 269.234C372.62 269.005 372.735 268.691 372.627 268.563C372.008 267.836 371.424 267.03 370.662 266.484C369.543 265.684 368.292 265.067 367.084 264.398C365.248 263.385 363.376 262.429 361.786 261.038C361.225 260.546 360.73 259.979 360.162 259.404C361.133 258.627 362.03 257.952 362.88 257.219C363.64 256.562 364.356 255.852 365.071 255.145C365.327 254.891 365.61 254.599 365.326 254.136Z" fill="#1F1D1F"/>
<path d="M373.278 212.634C373.099 212.777 372.885 212.866 372.802 213.025C372.035 214.497 371.279 215.975 370.554 217.468C370.474 217.636 370.611 217.91 370.648 218.134C370.866 218.064 371.117 218.04 371.293 217.912C371.448 217.799 371.531 217.578 371.624 217.392C372.202 216.242 372.773 215.088 373.347 213.935C373.552 213.522 373.725 213.109 373.278 212.634Z" fill="#1F1D1F"/>
<path d="M385.368 201.871C385.359 202.393 386.2 203.431 386.653 203.522C386.952 203.582 387.138 203.422 387.127 203.119C387.107 202.61 386.267 201.65 385.796 201.632C385.643 201.626 385.482 201.803 385.368 201.871Z" fill="white"/>
<path d="M382.278 199.779C382.202 199.893 382.031 200.038 382.019 200.195C381.979 200.673 382.658 201.462 383.135 201.522C383.428 201.559 383.617 201.409 383.598 201.099C383.573 200.689 382.776 199.852 382.278 199.779Z" fill="white"/>
<path d="M383.035 219.13C382.995 219.7 383.805 220.486 384.263 220.371C384.402 220.337 384.581 220.087 384.58 219.936C384.578 219.506 383.776 218.852 383.346 218.907C383.217 218.924 383.106 219.078 383.035 219.13Z" fill="white"/>
<path d="M398.797 238.495C399.06 238.934 399.298 239.414 399.625 239.823C399.721 239.943 400.1 239.929 400.295 239.848C400.422 239.795 400.561 239.456 400.505 239.334C400.282 238.856 400.009 238.395 399.696 237.97C399.613 237.858 399.283 237.819 399.139 237.891C398.996 237.96 398.944 238.215 398.797 238.495Z" fill="#1F1D1F"/>
<path d="M399.253 242.862C399.154 243.079 399.024 243.287 398.964 243.515C398.849 243.945 399.376 244.946 399.809 245.052C399.996 245.098 400.325 245.002 400.43 244.856C400.767 244.386 400.084 243.155 399.253 242.862Z" fill="#1F1D1F"/>
<path d="M324.658 254.224C324.741 254.088 324.967 253.884 324.982 253.664C325.012 253.239 324.112 252.466 323.679 252.545C323.51 252.576 323.276 252.84 323.262 253.013C323.221 253.499 323.998 254.22 324.658 254.224Z" fill="#1F1D1F"/>
<path d="M324.676 250.877C324.767 250.767 325 250.611 325.036 250.418C325.113 249.998 324.352 249.283 323.855 249.342C323.653 249.366 323.355 249.647 323.325 249.846C323.26 250.278 324.061 250.902 324.676 250.877Z" fill="#1F1D1F"/>
<path d="M412.459 350.426C411.294 352.069 410.015 353.263 408.898 353.731C409.804 352.272 411.025 351.416 412.459 350.426ZM414.65 349.942C414.013 351.969 413.07 353.826 411.578 355.38C412.186 353.338 413.249 351.546 414.65 349.942ZM410.794 353.917C410.601 354.646 410.461 355.075 410.381 355.515C410.322 355.834 410.273 356.185 410.345 356.492C410.472 357.044 410.92 357.259 411.397 356.975C411.82 356.722 412.217 356.388 412.539 356.014C414.266 354.003 415.321 351.638 416.046 349.117C416.22 348.516 416.26 347.887 416.888 347.526C416.979 347.475 417.04 347.188 416.981 347.097C416.88 346.94 416.656 346.738 416.514 346.759C416.152 346.811 415.757 346.906 415.462 347.109C413.5 348.472 411.52 349.815 409.634 351.279C408.929 351.828 408.404 352.644 407.904 353.408C407.483 354.053 407.534 354.792 407.879 355.036C408.421 355.419 408.922 355.159 409.395 354.866C409.783 354.626 410.152 354.355 410.794 353.917Z" fill="#1F1D1F"/>
<path d="M355.925 352.668C356.096 353.903 356.01 355.08 355.157 356.083C355.413 354.943 355.669 353.806 355.925 352.668ZM354.531 351.383C353.981 352.479 353.442 353.566 352.458 354.345C352.895 353.184 353.526 352.15 354.531 351.383ZM354.604 353.786C354.514 354.278 354.395 354.766 354.343 355.261C354.293 355.719 354.307 356.183 354.31 356.643C354.314 357.093 354.462 357.488 354.924 357.638C355.463 357.813 355.812 357.486 356.048 357.068C356.292 356.634 356.579 356.181 356.656 355.704C356.882 354.307 357.062 352.896 357.166 351.485C357.256 350.256 357.216 349.021 357.236 347.73C356.885 347.482 356.561 347.775 356.297 347.999C354.469 349.554 352.763 351.229 351.665 353.401C351.352 354.021 351.188 354.735 351.067 355.426C351.022 355.68 351.228 356.123 351.446 356.237C351.681 356.36 352.156 356.307 352.365 356.135C352.877 355.712 353.312 355.192 353.749 354.685C354.02 354.37 354.241 354.012 354.483 353.672C354.524 353.711 354.564 353.749 354.604 353.786Z" fill="#1F1D1F"/>
</svg>
