<svg width="787" height="557" viewBox="0 0 787 557" fill="none" xmlns="http://www.w3.org/2000/svg">
<path d="M660.458 241.628C665.495 228.342 668.321 213.814 668.321 198.666C668.321 132.858 615.494 79.4665 550.382 79.4665C526.18 79.4665 503.575 86.9165 484.901 99.5814C450.871 39.9816 387.356 0 314.504 0C205.902 0 117.939 88.9031 117.939 198.666C117.939 202.019 118.062 205.371 118.185 208.724C49.3869 233.184 0 299.489 0 377.466C0 476.178 79.2402 556.265 176.908 556.265H629.008C715.865 556.265 786.26 485.118 786.26 397.332C786.26 320.473 732.204 256.279 660.458 241.628Z" fill="#E6E6E6"/>
<circle cx="310.226" cy="251.389" r="32.0922" fill="#CBCBCB"/>
<circle cx="454.641" cy="251.389" r="32.0922" fill="#CBCBCB"/>
<path d="M267.436 411.848C267.436 411.848 292.397 353.013 385.108 353.013C477.818 353.013 502.779 411.848 502.779 411.848" stroke="#CBCBCB" stroke-width="15" stroke-linecap="round"/>
</svg>
