<svg version="1.2" xmlns="http://www.w3.org/2000/svg" viewBox="0 -1 500 501" width="500" height="501"><style>.a{fill:#ececec}.b{fill:#697172}.c{fill:#606060}.d{fill:#d0493a}.e{fill:none;stroke:#f5da34;stroke-linecap:round;stroke-miterlimit:10}.f{fill:#f5da34}.g{fill:none;stroke:#919a9b;stroke-linecap:round;stroke-linejoin:round}.h{fill:#fefcf3}.i{opacity:.3;mix-blend-mode:multiply;fill:#606060}.j{fill:#e5c62c}.k{fill:#414a51}.l{fill:#494947}.m{fill:#fff}.n{fill:#c44339}</style><path class="a" d="m482.3 357.6c0 7.6-104 13.7-232.3 13.7-128.3 0-232.3-6.1-232.3-13.7 0-7.5 104-13.7 232.3-13.7 128.3 0 232.3 6.2 232.3 13.7z"/><path class="b" d="m173 180v5.8h-23.4v-5.8q0-0.1 0-0.2c0.2-3.4 3-6.1 6.4-6.1h10.7c1.9 0 3.7 0.9 4.8 2.3 0.9 1.1 1.5 2.5 1.5 4z"/><path class="b" d="m168.5 185v157h-14.3v-157z"/><path class="b" d="m183.3 341.9v11.8h-44v-11.8z"/><path class="c" d="m183.3 341.9v11.8h-22.1c-0.7-4-4.2-7.1-8.4-7.1h-13.5v-4.7z"/><path class="c" d="m173 180v5.8h-4.5v156.2h-7.2c-0.1-2.6-0.9-4.9-2.2-6.9-1.2-1.7-2.8-3.2-4.6-4.2q-0.2-0.1-0.3-0.1v-13.3h7.1v-44.3c0-2.7-0.8-5.3-2.3-7.4-1.2-1.8-2.9-3.3-4.8-4.3v-13.2h7.1v-55.8c0-2.5-0.7-4.8-1.9-6.7q-0.2-0.4-0.6-0.8-0.5-0.8-1.3-1.6c-1.1-1.1-2.5-2-4-2.7-1.2-0.5-2.5-0.8-3.9-0.9 0.2-3.4 3-6.1 6.4-6.1h10.7c1.9 0 3.7 0.9 4.8 2.3 0.9 1.1 1.5 2.5 1.5 4z"/><path class="d" d="m179.6 156.4c0 10-8.1 18.1-18.1 18.1-10 0-18.1-8.1-18.1-18.1 0-10 8.1-18.1 18.1-18.1 10 0 18.1 8.1 18.1 18.1z"/><path class="e" d="m174.9 163.9c-1.2 2.1-2.9 3.9-4.8 5.2"/><path class="e" d="m165.4 171.2q-1.6 0.4-3.3 0.5"/><path class="e" d="m148.9 147.5q0.7-0.9 1.4-1.7"/><path class="e" d="m153.2 143.4c2.4-1.5 5.2-2.4 8.3-2.4 2.7 0 5.3 0.7 7.6 2"/><g style="opacity:.4"><path class="f" d="m173.8 156.4c0 6.7-5.5 12.2-12.3 12.2-6.8 0-12.3-5.5-12.3-12.2 0-6.8 5.5-12.3 12.3-12.3 6.8 0 12.3 5.5 12.3 12.3z"/></g><path class="f" d="m169.5 156.4c0 4.4-3.6 8-8 8-4.5 0-8.1-3.6-8.1-8 0-4.5 3.6-8.1 8.1-8.1 4.4 0 8 3.6 8 8.1z"/><path class="g" d="m156.8 272.3c0 0 0 4.5 0 11.2"/><path class="g" d="m156.8 335.8c0 2.7 0 4.3 0 4.3"/><path class="b" d="m350.4 180v5.8h-23.4v-5.8q0-0.1 0-0.2c0.1-3.4 2.9-6.1 6.4-6.1h10.6c2 0 3.7 0.9 4.9 2.3 0.9 1.1 1.5 2.5 1.5 4z"/><path class="b" d="m345.8 185v157h-14.3v-157z"/><path class="b" d="m360.7 341.9v11.8h-44v-11.8z"/><path class="c" d="m360.7 341.9v11.8h-22.1c-0.7-4-4.2-7.1-8.4-7.1h-13.5v-4.7z"/><path class="c" d="m350.4 180v5.8h-4.6v156.2h-7.1c-0.1-2.6-0.9-4.9-2.2-6.9-1.2-1.7-2.8-3.2-4.6-4.2q-0.2-0.1-0.4-0.1v-13.3h7.2v-44.3c0-2.7-0.8-5.3-2.3-7.4-1.2-1.8-2.9-3.3-4.9-4.3v-13.2h7.2v-55.8c0-2.5-0.7-4.8-2-6.7q-0.2-0.4-0.5-0.8-0.6-0.8-1.3-1.6c-1.1-1.1-2.5-2-4-2.7-1.2-0.5-2.5-0.8-3.9-0.9 0.1-3.4 2.9-6.1 6.4-6.1h10.6c2 0 3.7 0.9 4.9 2.3 0.9 1.1 1.5 2.5 1.5 4z"/><path class="d" d="m357 156.4c0 10-8.2 18.1-18.2 18.1-10 0-18.1-8.1-18.1-18.1 0-10 8.1-18.1 18.1-18.1 10 0 18.2 8.1 18.2 18.1z"/><path class="e" d="m352.2 163.9c-1.1 2.1-2.8 3.9-4.8 5.2"/><path class="e" d="m342.8 171.2q-1.6 0.4-3.4 0.5"/><path class="e" d="m326.3 147.5q0.6-0.9 1.4-1.7"/><path class="e" d="m330.6 143.4c2.4-1.5 5.2-2.4 8.2-2.4 2.8 0 5.4 0.7 7.6 2"/><g style="opacity:.4"><path class="f" d="m351.1 156.4c0 6.7-5.5 12.2-12.3 12.2-6.7 0-12.2-5.5-12.2-12.2 0-6.8 5.5-12.3 12.2-12.3 6.8 0 12.3 5.5 12.3 12.3z"/></g><path class="f" d="m346.9 156.4c0 4.4-3.6 8-8.1 8-4.4 0-8-3.6-8-8 0-4.5 3.6-8.1 8-8.1 4.5 0 8.1 3.6 8.1 8.1z"/><path class="g" d="m334.2 272.3c0 0 0 4.5 0 11.2"/><path class="g" d="m334.2 335.8c0 2.7 0 4.3 0 4.3"/><path class="h" d="m369.5 289v34.7h-239v-34.7z"/><path class="d" d="m156.9 289l-26.4 26.4v-14.2l12.2-12.2z"/><path class="d" d="m184.6 289l-34.6 34.7h-14.2l34.7-34.7z"/><path class="d" d="m212.4 289l-34.7 34.7h-14.1l34.6-34.7z"/><path class="d" d="m240.1 289l-34.6 34.7h-14.2l34.6-34.7z"/><path class="d" d="m267.8 289l-34.6 34.7h-14.2l34.7-34.7z"/><path class="d" d="m295.6 289l-34.7 34.7h-14.1l34.6-34.7z"/><path class="d" d="m323.3 289l-34.6 34.7h-14.2l34.6-34.7z"/><path class="d" d="m351 289l-34.6 34.7h-14.2l34.7-34.7z"/><path class="d" d="m369.5 289v9.3l-25.4 25.4h-14.1l34.6-34.7z"/><path class="d" d="m369.5 311.9v11.8h-11.8z"/><path class="i" d="m369.5 289v34.7h-69.7c-14.1-15.1-34.3-24.6-56.6-24.6h-112.7v-10.1z"/><path class="h" d="m369.5 185v69.3h-239v-69.3z"/><path class="d" d="m172.4 185l-41.9 41.9v-22.4l19.6-19.5z"/><path class="d" d="m216.9 185l-69.2 69.3h-17.2v-5.1l64.1-64.2z"/><path class="d" d="m261.4 185l-69.2 69.3h-22.3l69.3-69.3z"/><path class="d" d="m306 185l-69.3 69.3h-22.2l69.2-69.3z"/><path class="d" d="m350.5 185l-69.2 69.3h-22.3l69.2-69.3z"/><path class="d" d="m369.5 188.3v22.3l-43.7 43.7h-22.3z"/><path class="d" d="m369.5 235.2v19.1h-19.1z"/><g style="opacity:.3;mix-blend-mode:screen"><path class="h" d="m257.9 243.1h-111.6c-3.8 0-7-3.1-7-7 0-3.8 3.2-6.9 7-6.9h111.6c1.9 0 3.6 0.8 4.9 2 1.3 1.3 2 3 2 4.9 0 3.9-3.1 7-6.9 7z"/></g><g style="opacity:.3;mix-blend-mode:screen"><path class="h" d="m230.2 318.9h-83.9c-3.8 0-7-3.1-7-7 0-3.8 3.2-6.9 7-6.9h83.9c1.6 0 3 0.5 4.2 1.4 1.7 1.2 2.8 3.2 2.8 5.5 0 3.9-3.1 7-7 7z"/></g><path class="i" d="m130.5 185v20.9h112.7c12.3 0 23.9 2.9 34.2 7.9l-40.5 40.5h61.4l15.7-15.7c3.4 4.9 6.3 10.1 8.6 15.7h46.9v-69.3z"/><path class="i" d="m319.1 222.9c-0.2 1.2-0.8 2.3-1.7 3.2l-28.2 28.2h-39.2v-69.3h35.2l32.2 32.2c1.6 1.6 2.1 3.7 1.7 5.7z"/><path class="f" d="m312.2 219.7c0 1.2-0.4 2.4-1.3 3.3l-61.5 61.5c-1.9 1.9-4.8 1.9-6.7 0l-61.5-61.5c-1.8-1.8-1.8-4.8 0-6.6l47.2-47.1 14.3-14.4c1.9-1.8 4.8-1.8 6.7 0l61.5 61.5c0.9 0.9 1.3 2.1 1.3 3.3z"/><path class="j" d="m312.2 219.7c0 1.2-0.4 2.4-1.3 3.3l-61.5 61.5c-1.9 1.9-4.8 1.9-6.7 0l-11.7-11.7 25.6-25.6c13.7-13.7 13.7-36 0-49.8l-28.2-28.1 14.3-14.4c1.9-1.8 4.8-1.8 6.7 0l61.5 61.5c0.9 0.9 1.3 2.1 1.3 3.3z"/><path class="k" d="m212.9 229.3c5.5 0 8.1-2.8 8.1-6 0-7.3-11.9-4.6-11.9-8.8 0-1.5 1.3-2.7 4.4-2.7 1.7 0 3.7 0.5 5.5 1.5l1.2-2.9c-1.8-1.1-4.3-1.7-6.7-1.7-5.5 0-8.1 2.7-8.1 5.9 0 7.5 12 4.7 12 9 0 1.5-1.4 2.6-4.5 2.6-2.5 0-5-0.9-6.6-2.2l-1.3 2.9c1.7 1.4 4.8 2.4 7.9 2.4zm18.5-0.3h3.7v-16.9h6.6v-3.2h-17v3.2h6.7zm25.1 0.3c6.2 0 10.8-4.4 10.8-10.3 0-6-4.6-10.3-10.8-10.3-6.2 0-10.8 4.3-10.8 10.3 0 5.9 4.6 10.3 10.8 10.3zm0-3.3c-4.1 0-7.1-2.9-7.1-7 0-4.1 3-7.1 7.1-7.1 4 0 7 3 7 7.1 0 4.1-3 7-7 7zm25.9-17.1h-8.3v20.1h3.7v-5.8h4.6c5.2 0 8.5-2.7 8.5-7.1 0-4.5-3.3-7.2-8.5-7.2zm-0.2 11.2h-4.4v-8h4.4c3.3 0 4.9 1.5 4.9 4 0 2.5-1.6 4-4.9 4z"/><path class="l" d="m193.5 221.7c-1 0-1.8-0.8-1.8-1.8 0-1 0.8-1.8 1.8-1.8 1 0 1.8 0.8 1.8 1.8 0 1-0.8 1.8-1.8 1.8z"/><path class="c" d="m193.8 221.7c-1 0-1.8-0.8-1.8-1.8 0-1 0.8-1.8 1.8-1.8 1 0 1.8 0.8 1.8 1.8 0 1-0.8 1.8-1.8 1.8z"/><path class="l" d="m298.7 218.1c0.9 0 1.7 0.8 1.7 1.8 0 1-0.8 1.8-1.7 1.8-1 0-1.8-0.8-1.8-1.8 0-1 0.8-1.8 1.8-1.8z"/><path class="c" d="m298.3 218.1c1 0 1.8 0.8 1.8 1.8 0 1-0.8 1.8-1.8 1.8-1 0-1.8-0.8-1.8-1.8 0-1 0.8-1.8 1.8-1.8z"/><path class="m" d="m245 280.9c-1.3 0-2.5-0.6-3.5-1.5l-55.1-55.1c-2-2-2-5.2 0-7.1l55.1-55.2c1.9-1.9 5.2-1.9 7.1 0l55.1 55.2c1 0.9 1.5 2.2 1.5 3.5 0 1.4-0.5 2.6-1.5 3.6l-55.1 55.1c-1 0.9-2.2 1.5-3.6 1.5zm0-118.7c-0.9 0-1.7 0.3-2.4 1l-55.1 55.1c-1.3 1.3-1.3 3.5 0 4.8l55.1 55.2c1.3 1.3 3.6 1.3 4.9 0l55.1-55.2c0.6-0.6 1-1.5 1-2.4 0-0.9-0.4-1.8-1-2.4l-55.1-55.1c-0.7-0.7-1.5-1-2.5-1z"/><path class="d" d="m442.4 342h-56.9l4.3-16.5 3.6-14 3-11.6 3.6-14 8.8-33.9h10.4l8.8 33.9 3.6 14 3 11.6 3.6 14z"/><path class="h" d="m431.6 299.9h-35.2l3.6-14h28z"/><path class="h" d="m438.2 325.5h-48.4l3.6-14h41.2z"/><path class="n" d="m454.7 353.7h-81.5v-11.8h81.5z"/><path class="i" d="m454.7 341.9v11.8h-37c-0.6-4-4.1-7.1-8.3-7.1h-36.2v-4.7z"/><path class="i" d="m415.6 342c12.2-55.2-6.8-90-6.8-90h10.4l8.8 33.9 3.6 14 3 11.6 3.6 14 4.2 16.5z"/><g style="opacity:.3;mix-blend-mode:screen"><path class="h" d="m410.1 305.3c-2.8 14.6-7.3 26.1-10 25.5-2.8-0.5-2.7-12.8 0.2-27.4 2.8-14.6 7.3-26 10-25.5 2.8 0.5 2.7 12.8-0.2 27.4z"/></g><path class="d" d="m114.5 342h-56.9l4.2-16.5 3.6-14 3-11.6 3.6-14 8.8-33.9h10.4l8.8 33.9 3.6 14 3 11.6 3.6 14z"/><path class="h" d="m103.6 299.9h-35.2l3.6-14h28z"/><path class="h" d="m110.2 325.5h-48.4l3.6-14h41.2z"/><path class="n" d="m126.8 353.7h-81.5v-11.8h81.5z"/><path class="i" d="m126.8 341.9v11.8h-37c-0.7-4-4.2-7.1-8.4-7.1h-36.1v-4.7z"/><path class="i" d="m87.7 342c12.2-55.2-6.9-90-6.9-90h10.4l8.8 33.9 3.6 14 3 11.6 3.6 14 4.3 16.5z"/><g style="opacity:.3;mix-blend-mode:screen"><path class="h" d="m82.2 305.3c-2.9 14.6-7.4 26.1-10.1 25.5-2.7-0.5-2.6-12.8 0.2-27.4 2.9-14.6 7.4-26 10.1-25.5 2.7 0.5 2.6 12.8-0.2 27.4z"/></g></svg>