<svg width="425" height="402" viewBox="0 0 425 402" fill="none" xmlns="http://www.w3.org/2000/svg">
<path d="M406.98 243.7C368.34 380.09 262.72 380.33 184.77 378.59C87.87 376.43 0 294.29 0 189.44C0 84.59 45.68 0 174.34 0C303 0 463.56 43.98 406.98 243.7Z" fill="#E72C05"/>
<path d="M316.3 47.3499C316.3 47.3499 301.52 71.1999 306.89 75.1099C312.25 79.0199 331.1 89.0099 333.41 87.0799C337.75 83.4699 347.04 63.7699 345.73 59.7999C343.7 53.6799 318.33 43.6799 316.3 47.3399V47.3499Z" fill="white"/>
<path d="M332.5 87.9898C326.95 87.9898 309.93 78.1998 306.47 75.6798C300.75 71.5098 314.11 49.5498 315.69 46.9898C316.21 46.0698 317.52 45.7198 319.66 45.9098C327.42 46.6298 344.63 54.2598 346.39 59.5798C347.83 63.9198 338.37 83.8598 333.86 87.6198C333.56 87.8698 333.09 87.9798 332.5 87.9798V87.9898ZM318.59 47.2698C317.54 47.2698 317.03 47.4798 316.92 47.6898L316.9 47.7198C311.32 56.7298 303.78 71.9698 307.3 74.5398C314.06 79.4698 331.32 87.8498 332.96 86.5398C337.4 82.8398 346.22 63.5198 345.06 60.0298C343.6 55.6298 327.29 48.0298 319.53 47.3098C319.18 47.2798 318.86 47.2598 318.59 47.2598V47.2698Z" fill="#E72C05"/>
<path d="M338.82 60.6398C337.71 61.0198 321.22 72.0198 321.22 72.0198C321.22 72.0198 317.91 60.1798 317.87 59.8398C317.87 59.8398 314.24 60.2098 313.64 61.1598C313.04 62.1098 316.48 76.4798 319.4 77.0898C322.32 77.6998 341.59 64.5898 341.59 64.5898L338.82 60.6398Z" fill="#E72C05"/>
<path d="M325.04 182.7C325.04 182.7 311.6 154.94 320.09 158.22C328.58 161.5 342.22 172.3 342.22 172.3L357.24 163.77C360.49 161.93 364.29 165.06 363.11 168.6L358.31 183.01C358.31 183.01 385.42 206.23 377.17 205.42C368.92 204.61 349.04 202.67 349.04 202.67C349.04 202.67 354.44 232.58 347.29 225.51C340.15 218.44 330.36 198.39 330.36 198.39C330.36 198.39 295.3 201.32 305.14 195.92C314.97 190.52 325.04 182.69 325.04 182.69V182.7Z" fill="white"/>
<path d="M52.14 65.25C52.23 67.08 54.43 104.25 54.43 104.25C54.43 104.25 17.26 104.25 28.28 112.97C39.29 121.69 54.43 135.45 54.43 135.45C54.43 135.45 32.2 156.56 40.33 156.56C48.46 156.56 71.86 152.43 71.86 152.43C71.86 152.43 80.12 196.02 85.17 183.63C90.22 171.24 94.35 152.43 94.35 152.43C94.35 152.43 155.84 149.68 143.45 145.09C131.06 140.5 104.45 125.55 104.45 125.55C104.45 125.55 132.44 77.18 123.26 78.56C114.08 79.94 85.67 99.67 85.67 99.67C85.67 99.67 51.94 61.19 52.14 65.26V65.25Z" fill="white"/>
<path d="M210.1 245.74C210.19 247.57 212.39 284.74 212.39 284.74C212.39 284.74 175.22 284.74 186.24 293.46C197.25 302.18 212.39 315.94 212.39 315.94C212.39 315.94 190.16 337.05 198.29 337.05C206.42 337.05 229.82 332.92 229.82 332.92C229.82 332.92 238.08 376.51 243.13 364.12C248.18 351.73 252.31 332.92 252.31 332.92C252.31 332.92 313.8 330.17 301.41 325.58C289.02 320.99 262.41 306.04 262.41 306.04C262.41 306.04 290.4 257.67 281.22 259.05C272.04 260.43 243.63 280.16 243.63 280.16C243.63 280.16 209.9 241.68 210.1 245.75V245.74Z" fill="white"/>
<path d="M49.22 284.14L55.06 266.37L61.69 284.14C61.69 284.14 74.93 286.39 75.09 287.63C75.24 288.84 62.42 292.62 62.42 292.62C62.42 292.62 57.04 309.85 55.07 305.95C53.1 302.05 51.19 293.41 51.19 293.41C51.19 293.41 34.51 289.95 34.51 288.25C34.51 286.41 49.23 284.15 49.23 284.15L49.22 284.14Z" fill="white"/>
<path d="M232.94 31.1399L237.28 17.9199L242.21 31.1399C242.21 31.1399 252.06 32.8199 252.18 33.7299C252.29 34.6299 242.75 37.4399 242.75 37.4399C242.75 37.4399 238.75 50.2599 237.28 47.3599C235.82 44.4599 234.4 38.0299 234.4 38.0299C234.4 38.0299 221.99 35.4499 221.99 34.1899C221.99 32.8199 232.94 31.1399 232.94 31.1399Z" fill="white"/>
<path d="M220.39 137.94L224.73 124.72L229.66 137.94C229.66 137.94 239.51 139.62 239.63 140.53C239.74 141.43 230.2 144.24 230.2 144.24C230.2 144.24 226.2 157.06 224.73 154.16C223.27 151.26 221.85 144.83 221.85 144.83C221.85 144.83 209.44 142.25 209.44 140.99C209.44 139.62 220.39 137.94 220.39 137.94Z" fill="white"/>
<path d="M390.63 165.19L394.97 151.97L399.9 165.19C399.9 165.19 409.75 166.87 409.87 167.78C409.98 168.68 400.44 171.49 400.44 171.49C400.44 171.49 396.44 184.31 394.97 181.41C393.51 178.51 392.09 172.08 392.09 172.08C392.09 172.08 379.68 169.5 379.68 168.24C379.68 166.87 390.63 165.19 390.63 165.19Z" fill="white"/>
<path d="M101.77 49.5399L104.19 42.1699L106.94 49.5399C106.94 49.5399 112.43 50.4699 112.49 50.9899C112.55 51.4899 107.23 53.0599 107.23 53.0599C107.23 53.0599 105 60.2099 104.18 58.5899C103.36 56.9699 102.57 53.3899 102.57 53.3899C102.57 53.3899 95.66 51.9499 95.66 51.2499C95.66 50.4899 101.76 49.5499 101.76 49.5499L101.77 49.5399Z" fill="white"/>
<path d="M346.68 249.05C346.68 249.05 348.29 275.27 354.5 275.36C360.72 275.45 380.53 272.89 381.25 270.16C382.61 265.05 379.06 244.96 375.91 242.65C371.05 239.07 346.24 245.15 346.68 249.05Z" fill="white"/>
<path d="M368.63 246.36C367.99 247.25 358.17 269.07 358.17 269.07L361.64 271.17C363.66 268.55 372.89 247.88 372.89 247.88L368.64 246.36H368.63Z" fill="#E72C05"/>
<path d="M353.78 253.49C354.53 254.29 374.19 267.93 374.19 267.93L376.89 264.91C374.68 262.45 356.05 249.59 356.05 249.59L353.78 253.49Z" fill="#E72C05"/>
<path d="M144.14 49.5398C144.14 49.5398 141.74 89.7398 151.18 91.0198C160.62 92.2998 191.24 92.0598 192.84 88.0498C195.86 80.5298 194.16 49.3098 189.8 45.1998C183.06 38.8598 144.2 43.5198 144.14 49.5298V49.5398Z" fill="white"/>
<path d="M166.58 92.3999C159.93 92.3999 153.91 92.0999 151.08 91.7199C146.78 91.1399 144.2 83.7799 143.41 69.8399C142.84 59.8999 143.41 49.9799 143.43 49.5099C143.46 48.1099 144.79 46.8699 147.52 45.7099C152.41 43.6199 161.4 41.9999 170.4 41.5699C175.14 41.3499 186.57 41.1999 190.28 44.6899C194.24 48.4199 197.21 79.0299 193.49 88.3099C192.24 91.4399 178.42 92.3999 166.58 92.3999ZM174.87 42.8799C165.26 42.8799 153.66 44.6199 148.07 47.0099C145.16 48.2499 144.84 49.1999 144.84 49.5499V49.5799C144.18 60.5799 144.06 89.3399 151.27 90.3199C166.72 92.4199 191.27 90.0799 192.18 87.7899C195.29 80.0399 193.19 49.3699 189.31 45.7199C187.17 43.7099 181.49 42.8799 174.87 42.8799Z" fill="#E72C05"/>
<path d="M181.64 50.9697C180.49 52.1997 167.17 77.3497 167.17 77.3497C167.17 77.3497 154.91 64.6497 154.64 64.2497C154.64 64.2497 150.3 67.1897 150.19 68.7997C150.08 70.4097 164.22 86.2097 168.33 84.9797C172.43 83.7597 187.84 54.0497 187.84 54.0497L181.65 50.9497L181.64 50.9697Z" fill="#E72C05"/>
<path d="M345.98 61.1698C353.28 56.4998 364.83 56.8598 375.22 59.8598C385.27 62.4798 398.85 68.0098 405.85 71.9298C413.33 76.1198 420.26 82.1498 422.92 90.2998C426.53 101.35 422.05 113.31 416.97 123.77C412.9 132.15 407.45 141.1 398.44 143.49C392.63 145.03 386.49 143.46 380.72 141.77C375.98 140.38 371.26 138.9 366.58 137.33C359.96 142.69 346.05 147.88 345.63 145.03C345.25 142.46 351.37 137.53 352.62 132.37C351.23 131.84 349.84 131.31 348.45 130.77C341.81 128.18 334.93 125.19 330.56 119.56C325.44 112.98 324.71 103.94 325.81 95.6798C327.62 82.0398 334.4 68.5798 345.98 61.1698Z" fill="#0757C6"/>
<path d="M399.28 88.3297C397.22 88.9997 366.56 108.94 366.56 108.94C366.56 108.94 360.71 87.0297 360.65 86.4097C360.65 86.4097 353.95 86.9997 352.81 88.7497C351.68 90.4997 357.72 117.06 363.09 118.25C368.46 119.44 404.3 95.6697 404.3 95.6697L399.27 88.3297H399.28Z" fill="#A0D2F4"/>
<path d="M322.14 190.78C320.56 183.81 295.78 181.16 268.93 176.8C242.08 172.44 220.73 177.03 220.73 177.03C220.73 177.03 266.78 284.9 280.9 299.44C295.02 313.98 341.07 315.29 341.07 315.29C341.07 315.29 325.28 204.63 322.14 190.78Z" fill="#0757C6"/>
<g opacity="0.3">
<path d="M233.07 203.32C233.5 203.01 233.95 202.68 234.41 202.33C235.39 202.49 236.36 202.65 237.29 202.8C238.81 206.76 232.9 207.47 233.06 203.32H233.07ZM243.48 224.48C244.55 224.74 245.28 224.1 246.23 223.57C246.58 217.7 239.37 221.23 243.48 224.48ZM251.64 239.14C251.48 239.84 251.34 240.44 251.21 241.05C251.75 241.63 252.25 242.18 252.82 242.79C255.04 241.84 256.9 240.16 254.18 238.6C253.27 238.8 252.43 238.97 251.64 239.15V239.14ZM262.92 247.7C262.51 247.92 262.19 248.09 261.9 248.24C261.25 248.05 261.29 247 260.2 247.28C260.12 254.63 267.31 250.63 262.92 247.7ZM255.63 249.9C255.31 249.29 255.07 248.64 254.63 248.13C252.9 247.97 252.32 247.97 251.85 248.67L253.26 251.6C254.22 251.79 255.17 251.33 255.62 249.91L255.63 249.9ZM260.26 240.49C260.81 242.72 263.49 242.93 264.33 241.55C263.84 240.68 263.36 239.8 262.87 238.93C261.78 238.7 260.61 239.19 260.26 240.5V240.49ZM258.88 255.81C258.94 255 260.05 254.65 259.91 253.51C258.43 251.46 256.36 251.48 255.66 254.13C256.72 254.69 257.14 256.29 258.88 255.81ZM276.08 264.9C276.53 264.98 276.9 264.92 277.21 264.79C276.63 263.72 276.03 262.64 275.42 261.53C274.31 262.46 274.05 265.48 276.08 264.89V264.9ZM265.25 246.31C265.74 246.79 266.46 246.84 267.15 246.61C266.65 245.71 266.15 244.81 265.64 243.9C265.13 244.48 264.89 245.33 265.24 246.31H265.25ZM225.59 184.01C222.71 186.25 224.37 188.45 227.56 186.96C229.69 186.1 227.49 183.74 225.59 184.01ZM236.94 213.95C237.75 212.11 235.65 211.3 234.08 211.8L235.75 215.26C236.24 215.12 236.68 214.72 236.94 213.95ZM277.44 273.52C278.09 272.61 278.08 271.74 277.79 270.84C276.77 270.67 275.87 270.53 274.97 270.38C272.82 272.36 275.03 275.09 277.44 273.51V273.52ZM260.17 258.72C260.83 259.12 261.05 259.58 261.4 260.13C262.28 260.75 263.87 259.8 264.28 258.97C264.98 255.61 260.93 255.96 260.16 258.72H260.17ZM248.7 229C251.65 228.3 250.74 224.14 248.1 224.83C246.51 226.2 246.71 228.29 248.7 229ZM279.31 278.11C279.76 278.26 280.22 278.42 280.66 278.57C281.453 278.19 282.13 277.67 282.69 277.01C282.76 275.31 281.34 275.2 280.34 274.68C278.47 275.71 278.32 276.22 279.32 278.1L279.31 278.11ZM259.35 246.75C260.64 245.18 260.39 243.43 258.76 243.54C257.75 244.1 256.15 243.33 255.84 244.79C256.55 246.69 257.31 247.24 259.35 246.75ZM268.37 254.77C269.2 253.27 268.54 252.35 267.12 251.91C265.58 252.15 265.44 253.28 265.13 254.33C265.3 256.05 268.2 256.9 268.37 254.76V254.77ZM289.4 287.88C289.26 287.44 288.8 286.46 288.06 285C287.96 285.21 287.84 285.47 287.68 285.82C288.09 286.87 288.68 287.71 289.39 287.88H289.4ZM253.18 229.21C252.64 229.87 252.07 230.57 251.56 231.19C251.8 232.69 252.88 233.08 254.17 233.6C254.67 232.62 255.11 231.74 255.58 230.83C254.95 230.04 254.34 229.35 253.18 229.21ZM256.83 228.09C256.64 227.75 256.45 227.41 256.26 227.08C256.17 227.24 256.07 227.41 255.97 227.59C256.25 227.81 256.55 227.95 256.83 228.1V228.09ZM280.29 283.96C280.19 283.96 280.1 283.98 280.01 284.01C280.73 284.4 281.44 284.78 282.12 285.14C281.8 284.51 281.17 284.01 280.29 283.97V283.96ZM242.52 204.66C242.96 205.46 243.65 205.82 244.4 205.98C244.4 205.98 244.42 205.98 244.43 205.97C243.94 205.11 243.47 204.25 242.99 203.41C242.79 203.75 242.63 204.16 242.52 204.66ZM237.08 194.98C236.79 194.44 236.47 193.85 236.17 193.31C234.06 193.07 233.48 193.97 233.02 195.61C234.23 197.51 236.74 197.33 237.07 194.98H237.08ZM227.91 195.76C228.09 193.84 226.9 192.79 225.26 193.53L226.85 196.83C227.26 196.66 227.64 196.32 227.9 195.76H227.91ZM249.39 243.55L250.35 245.53C250.44 245.12 250.47 244.66 250.59 244.18C250.15 243.86 249.76 243.68 249.4 243.55H249.39ZM285.71 283.44C286 283.02 286.29 282.58 286.58 282.15C286.1 281.24 285.57 280.24 284.99 279.15C284.89 279.07 284.79 278.98 284.7 278.87C283.39 280.36 283.04 283.51 285.7 283.44H285.71ZM226.49 179.28C227.15 178.52 227.71 177.87 228.24 177.25C227.77 176.41 227.51 175.96 227.51 175.96L224.34 176.38C224.66 177.18 224.95 177.92 225.28 178.74C225.58 178.87 225.97 179.04 226.49 179.27V179.28ZM257.41 237.74C258.55 237.38 259.84 237.56 260.06 236.03C258.7 234.4 258.12 233.4 256.11 234.69C255.86 235.99 256.3 236.98 257.41 237.74ZM228.81 190.46C228.46 192.25 231 192.69 232.1 191.77C231.89 191.16 232.33 190.73 232.51 190.22C232.51 188.11 228.78 188.3 228.82 190.46H228.81ZM241.96 226.88C241.87 225.57 241.18 224.98 240.4 224.92L241.69 227.59C241.83 227.39 241.93 227.15 241.96 226.88ZM251.01 235.43C249.73 234.67 248.577 234.4 247.55 234.62C246.63 235.5 247.14 236.36 247.6 237.42C249.24 237.41 251.73 237.92 251.01 235.43ZM265.6 261.77C263.97 264.21 267.63 266.48 268.91 263.53C268.8 261.6 267.24 260.59 265.6 261.77ZM228.88 198.93C229.19 199.62 229.51 200.35 229.83 201.07H232.37C232.57 200.57 232.75 200.12 232.95 199.59C232.25 198.84 231.65 198.21 231.06 197.59C230.08 197.67 229.28 197.91 228.88 198.93ZM278.25 281.08C277.12 279.52 275.77 278.86 274.22 280.31C274.24 280.5 274.27 280.68 274.31 280.85C275.34 281.44 276.4 282.03 277.45 282.62C277.79 282.3 278.07 281.81 278.25 281.08ZM265.22 272.36C265.9 273.26 266.3 273.8 266.74 274.38C267.687 274.16 268.36 273.327 268.76 271.88C268.19 270.2 265.16 270.27 265.22 272.35V272.36ZM228.77 181.82C229.87 183.26 230.87 183.48 231.57 183.15C230.88 181.92 230.27 180.84 229.74 179.9C229.42 180.54 229.1 181.17 228.78 181.81L228.77 181.82ZM251.06 218.37C250.33 217.63 250.16 216.55 249.01 216.29C246.52 216.89 246.51 219.29 248.99 219.93C249.91 219.71 250.44 219.12 251.06 218.37ZM238.02 208.64C238.29 209.16 238.5 209.58 238.81 210.2C244.56 211.34 239.66 203.09 238.02 208.64ZM221.37 179.64C220.45 179.73 220.39 180.77 220.19 181.63C219.46 182.52 221.05 183.13 221.69 183C224.73 183.41 223.6 179.05 221.37 179.64ZM271.29 275.2C270.97 276.29 269.49 276.01 269.34 277.22C269.87 278.47 271.09 278.24 272.09 278.59C272.92 277.87 273.86 277.3 273.1 276.17C272.89 275.42 271.94 274.25 271.29 275.2ZM246.47 213.12C246.11 212.98 245.73 212.82 245.36 212.66C245.33 212.4 245.31 212.17 245.28 211.85C244.66 211.77 244.08 211.65 243.49 211.47C242.79 212.15 242.73 213.03 242.49 213.74C243.44 215.86 245.76 215.2 246.47 213.12ZM246.43 231.68C246.09 229.24 244.26 229.76 243.23 230.81L244.37 233.18C244.63 233.18 244.9 233.16 245.22 233.11C245.61 232.64 246.01 232.17 246.43 231.68ZM260.71 266.59C260.84 266.87 260.89 267.16 260.91 267.45L261.87 269.45C265.57 269.21 264.05 264.06 260.71 266.59ZM271.49 260.25C275.48 260.94 272.48 255 269.75 257.76C269.55 259.45 270.48 259.51 271.49 260.25ZM218.93 177.12L217.43 177.32L217.92 178.34C218.65 178.05 218.95 177.61 218.93 177.13V177.12ZM270.59 266.37C268.8 269.16 272.09 271.04 273.43 267.85C272.85 266.664 271.903 266.17 270.59 266.37ZM259.69 263.58C258.73 262.78 259.42 261.67 258.49 260.95C258.28 261.03 258.08 261.1 257.87 261.17L259.44 264.43C259.7 264.29 259.83 264.05 259.69 263.58ZM254.32 223.65C253.78 222.69 253.24 221.72 252.71 220.77C252.5 220.89 252.29 221.07 252.07 221.31C250.58 223.01 252.76 224.2 254.33 223.65H254.32ZM238.25 198.92C238.61 199.79 238.93 200.58 239.25 201.36C240.64 201.54 240.98 201.55 241.45 200.71C241 199.92 240.57 199.14 240.13 198.37C239.49 198.25 238.81 198.39 238.25 198.92ZM241.02 219.18C242.06 217.61 241.62 217.54 240.69 216.75C237.29 214.87 238.04 220.3 241.02 219.18Z" fill="#421B36"/>
</g>
<path d="M250.28 187.76C250.28 187.76 230.52 213.31 251.76 214.69C273.01 216.07 320.21 186.95 289.45 180.02C258.68 173.09 250.28 187.76 250.28 187.76Z" fill="#A0D2F4"/>
<path d="M253.23 188.97C253.23 188.97 240.26 211.05 254.98 212.14C269.7 213.23 305.78 189.52 289.45 180.02C273.12 170.51 253.23 188.97 253.23 188.97Z" fill="#FFBFBF"/>
<path d="M27.6799 181.47C27.6799 181.47 108.75 405.4 122.25 401.01C154.45 390.54 283.97 336.41 283.57 324.69C282.84 303.2 191.39 115.3 186.89 109.16C182.6 103.31 25.5999 173.16 27.6699 181.46L27.6799 181.47Z" fill="#0757C6"/>
<path d="M33.5899 185.96C33.5899 185.96 109.94 398.07 123.44 393.68C155.64 383.21 283.23 333.59 274.41 313.98C265.59 294.37 189.61 126.63 185.12 120.5C180.83 114.65 31.5299 177.67 33.5999 185.96H33.5899Z" fill="white"/>
<path d="M122.85 394.51C119.77 394.51 110.56 387.13 72.7999 291.73C52.2599 239.84 33.1199 186.73 32.9299 186.2L32.9099 186.13C32.6299 185.01 31.7799 181.61 72.0099 162.75C93.5899 152.63 121.13 140.89 143.88 132.11C183.34 116.88 185.04 119.2 185.68 120.08C190.23 126.29 266.53 294.77 275.05 313.69C275.79 315.33 275.7 317.18 274.81 319.21C264.87 341.66 151.69 385.24 123.66 394.35C123.44 394.42 123.18 394.5 122.86 394.5L122.85 394.51ZM34.2699 185.78C34.9799 187.76 53.8599 240.08 74.0999 291.21C111.39 385.4 120.86 393.76 123.21 393.01C151.12 383.94 263.76 340.66 273.51 318.64C274.25 316.97 274.33 315.54 273.75 314.27C265.24 295.36 189.01 127.03 184.53 120.91C179.83 117.48 71.6899 161.03 40.4399 180.64C34.4299 184.41 34.2599 185.62 34.2599 185.77L34.2699 185.78Z" fill="#421B36"/>
<path d="M32.04 184.54C32.04 184.54 113.08 388.77 126.58 384.38C158.78 373.91 289.38 325.32 280.56 305.72C271.74 286.11 190.05 120.91 185.55 114.77C181.26 108.92 29.97 176.24 32.04 184.54Z" fill="white"/>
<path d="M125.97 385.21C122.86 385.21 113.4 378 73.5999 286.39C51.8999 236.45 31.5899 185.31 31.3799 184.8L31.3499 184.71C30.2199 180.17 61.3999 164.49 87.7499 152.14C118.36 137.79 182.68 109.68 186.1 114.36C190.45 120.29 271.78 284.55 281.18 305.44C281.9 307.03 281.82 308.83 280.96 310.79C270.77 333.8 148.8 377.91 126.78 385.06C126.56 385.13 126.3 385.22 125.96 385.22L125.97 385.21ZM32.7199 184.35C33.5899 186.54 53.5699 236.76 74.8899 285.83C114.28 376.49 124.01 384.47 126.36 383.71C162.52 371.95 270.46 331.04 279.69 310.2C280.4 308.61 280.47 307.23 279.91 306C270.52 285.13 189.3 121.09 184.98 115.18C180.38 111.99 73.1399 157.47 40.0399 178.34C33.0099 182.77 32.7299 184.15 32.7199 184.34V184.35Z" fill="#421B36"/>
<path d="M147.41 239.97C169.48 229.37 191.57 218.8 213.43 207.78C214.44 207.27 213.55 205.75 212.54 206.26C190.67 217.28 168.59 227.85 146.52 238.45C145.5 238.94 146.39 240.46 147.41 239.97Z" fill="#421B36"/>
<path d="M152.37 251.51C175.25 242.28 197.48 231.52 219.39 220.2C220.4 219.68 219.51 218.16 218.5 218.68C196.73 229.93 174.63 240.64 151.9 249.81C150.86 250.23 151.32 251.93 152.37 251.51Z" fill="#421B36"/>
<path d="M174.93 303.29C197 292.69 219.09 282.12 240.95 271.1C241.96 270.59 241.07 269.07 240.06 269.58C218.19 280.6 196.11 291.17 174.04 301.77C173.02 302.26 173.91 303.78 174.93 303.29Z" fill="#421B36"/>
<path d="M179.9 314.83C202.78 305.6 225.01 294.84 246.92 283.52C247.93 283 247.04 281.48 246.03 282C224.26 293.25 202.16 303.96 179.43 313.13C178.39 313.55 178.85 315.25 179.9 314.83Z" fill="#421B36"/>
<path d="M185.57 326.36C205.61 316.94 225.65 307.52 245.69 298.1C246.71 297.62 245.82 296.1 244.8 296.58C224.76 306 204.72 315.42 184.68 324.84C183.66 325.32 184.55 326.84 185.57 326.36Z" fill="#421B36"/>
<path d="M83.85 258.84C83.85 258.84 97.86 299.67 107.74 297.09C117.62 294.51 147.87 281.79 147.83 277.16C147.75 268.47 133.34 238.22 127.34 235.92C118.07 232.38 81.45 252.84 83.84 258.83L83.85 258.84Z" fill="white"/>
<path d="M106.84 297.91C102.57 297.91 97.4 291.64 91.45 279.24C86.83 269.61 83.34 259.55 83.18 259.09C82.64 257.72 83.46 255.96 85.67 253.71C93.81 245.44 119.82 232.31 127.59 235.28C131.9 236.93 138.51 249.91 140.44 253.85C144.44 262.04 148.49 272.43 148.53 277.17C148.58 282.79 116.15 295.63 107.91 297.78C107.56 297.87 107.2 297.92 106.83 297.92L106.84 297.91ZM124.63 236.21C115.28 236.21 93.69 247.57 86.68 254.69C84.28 257.13 84.36 258.22 84.5 258.58V258.61C88.35 269.79 99.99 298.35 107.56 296.41C119.37 293.33 147.16 280.8 147.13 277.17C147.05 268.21 132.45 238.63 127.1 236.58C126.43 236.32 125.6 236.2 124.64 236.2L124.63 236.21Z" fill="#0757C6"/>
<g opacity="0.3">
<path d="M138.02 154.69C137.81 153.79 138.18 152.9 139.57 153.02V151.88C139.99 151.95 140.41 152.03 140.94 152.12C141.08 152.29 141.2 152.47 141.31 152.66C140.24 153.33 139.14 154.01 138.02 154.69ZM139.57 143.19C138.64 143.55 138.02 144.15 137.92 145.11C138.34 145.84 138.89 146.01 139.57 145.83V146.59C142.45 146.65 141.6 144 139.57 143.19ZM156.73 134.44C156.47 135.22 156.22 135.96 155.97 136.71C158.41 140.19 161.93 135.78 158.5 133.79C157.78 134.05 157.25 134.25 156.74 134.44H156.73ZM143.72 147.87C143.18 148.55 142.85 149.26 142.64 149.95C142.86 150.66 143.27 150.96 143.74 151.14C144.73 150.51 145.68 149.89 146.61 149.28C146.13 148.22 144.9 148.07 143.72 147.88V147.87ZM149.22 143.05C148.65 143.36 148.12 143.65 147.64 143.91C147.4 146.26 148.1 147.4 150.08 146.88C150.4 146.12 151.16 145.43 150.84 144.34C150.33 143.93 149.8 143.51 149.22 143.05ZM146.61 122.77C146.06 120.36 143.41 120.08 142.68 122.51C144.21 124.54 144.98 124.59 146.61 122.77ZM150.75 125.62C149.97 125.54 149.3 125.48 148.56 125.4C148.2 126.4 147.29 127.16 147.63 128.29C149.49 128.8 151.61 128.33 150.75 125.61V125.62ZM151.35 140.6C153.17 143.35 154.96 141.83 155.87 139.34C154.99 139.14 154.25 138.96 153.54 138.8C153.133 139.62 152.407 140.22 151.36 140.6H151.35ZM150.61 135.23C149.43 133.9 148.42 134.98 147.55 136.04C148.41 138.2 149.17 137.65 150.86 137.07C151.68 136.6 151.16 135.68 150.61 135.23ZM142.24 140.36C143.21 140.8 143.61 141.19 143.94 142.24C149.1 141.77 144.4 136.93 142.24 140.36ZM146.61 131.74C145.69 130.53 143.02 130.26 142.46 131.82C143.32 133.19 145.98 133.17 146.61 131.74ZM153.82 129.85C153.66 130.15 153.52 130.41 153.33 130.77C149.4 130.7 153.92 133.46 155.91 131.63C155.25 130.83 154.94 129.82 153.82 129.86V129.85ZM138.97 125.46C138.69 126.27 138.42 127.09 138.16 127.84C138.67 129.06 138.68 129.06 139.57 129.19V128.43C140.12 128.57 140.65 128.63 141.1 128.36C142.24 126.61 141.55 125.67 139.57 125.79V125.41C139.38 125.43 139.2 125.44 138.97 125.46ZM137.87 135.09C138.403 135.863 138.73 136.643 138.85 137.43C139.08 137.46 139.33 137.48 139.57 137.51C140.24 137.71 140.71 137.24 141.19 137.07C141.39 136.47 141.57 135.96 141.73 135.47C141.19 134.69 140.37 134.42 139.57 134.11V134.49C138.84 134.06 138.16 134.26 137.88 135.09H137.87ZM86.74 174.01C88.97 172.03 85.34 169.07 83.42 171.08C81.97 173.56 84.52 175.78 86.74 174.01ZM82.41 178.21C82.67 176.9 82.39 175.87 81.41 174.92C80.38 175.01 79.45 175.09 78.47 175.18C77.73 177.95 80.02 180.46 82.41 178.21ZM87.31 165.28C86.65 162.49 88.15 160.99 83.86 161.54C82.34 164.21 84.5 166.53 87.31 165.28ZM76.46 179.33C76.18 179.35 75.95 179.41 75.72 179.49C76.5 180.4 77.36 181.16 78.3 181.7C78.33 180.61 77.7 179.47 76.46 179.33ZM88.01 151.35C89.98 152 91.64 151.11 91.57 149.37C90.36 150.05 89.17 150.71 88.01 151.35ZM91.95 177.15C91.95 176.09 90.41 174.63 89.37 174.75C88.3 175.01 88.64 176.26 87.94 176.83C87.76 176.98 87.78 177.61 87.94 177.88C88.93 179.67 91.9 179.4 91.95 177.15ZM135.28 138.32C132.72 139.31 132.45 142.07 135.27 142.83C137.99 142.14 137.57 139.46 135.28 138.32ZM76.52 174.64C77.14 173.69 79.3 172.86 77.95 171.53C76.79 170.44 74.67 169.95 73.87 171.73C74.57 172.93 74.76 174.65 76.52 174.64ZM82.97 167.87C82.5 166.49 81.4 166.25 80.54 165.6C78.86 166.8 77.97 168.5 79.75 170.05C81.62 170.43 81.83 168.56 82.97 167.87ZM130.08 143.02C128.99 143.58 129.21 144.99 128.27 145.65C131.09 149.75 135.43 144.29 130.08 143.02ZM103.76 165.64C104.39 165.21 104.94 164.84 105.53 164.44C105.32 163.53 105.17 162.88 105.02 162.22C104.44 161.84 103.88 161.48 103.36 161.14C102.18 161.76 100.98 162.99 101.67 164.39C102.6 164.24 103.14 164.97 103.77 165.65L103.76 165.64ZM85.25 179.31C84.5 180.14 83.2 180.53 83.11 181.74C83.2 181.94 83.33 182.11 83.46 182.27C84.54 182.01 85.84 181.59 87.33 181.04C87.31 180.96 87.3 180.88 87.28 180.79C86.54 180.25 85.9 179.78 85.25 179.3V179.31ZM73.51 159.43C72.64 159.92 71.87 160.34 71.23 160.7C72.43 161.49 73.27 160.57 73.51 159.43ZM103.35 142.97C98.68 144.45 104.18 149.72 105.58 145.13C104.88 144.29 104.23 143.55 103.35 142.97ZM83.31 154.94C84.18 156.72 86.31 155.96 87.39 154.71C87.24 153.57 86.56 152.86 85.79 152.58C84.94 153.06 84.1 153.52 83.29 153.97C83.25 154.25 83.24 154.57 83.31 154.94ZM112.39 165.55C114.88 164.35 114.98 163.19 112.7 161.44C109.7 161.62 110.07 164.61 112.39 165.55ZM70.42 166.11C70.31 166.56 70.2 167 70.13 167.44C70.3 168.07 70.5 168.74 70.72 169.42C74.81 170.08 74.84 164.99 70.42 166.1V166.11ZM91.42 166.91C90.37 165.62 88.81 165.82 87.99 167.23C88.23 168.41 88.5 169.48 89.57 170.04C90.17 170 90.5 169.76 91.11 169.55C90.99 168.51 91.78 167.77 91.42 166.91ZM99.05 160.59C99.66 159.95 100.51 159.84 100.85 159.08C100.03 153.96 93.54 159.82 99.05 160.59ZM90.59 160.95C92.54 158.19 90.84 156.34 87.88 157.88C87.34 159.97 88.68 160.79 90.59 160.95ZM82.3 157.66C81.9 157.4 81.44 157.1 81.04 156.85C74.71 159.46 83.47 163.39 82.3 157.66ZM122.7 152.43C120.38 151.91 119.49 153.59 120.3 155.62C122.73 157.13 124.15 154.45 122.7 152.43ZM92.54 154.89C93.65 156.47 95.69 156.52 96.32 154.51C95.92 152.08 91.18 152.22 92.54 154.89ZM103.64 152.18C102.747 152.54 102.057 153.177 101.57 154.09C102.83 158.69 107.34 154.36 103.64 152.18ZM94.66 174.24C95.68 173.71 95.89 172.81 96.43 172.14C96.06 171.54 95.74 171.02 95.46 170.56C92.81 170.81 91.56 171.15 93.23 173.77C93.72 173.89 94.18 174.04 94.66 174.24ZM96.67 177.03C96.67 177.03 96.67 177.05 96.68 177.06C97.62 176.63 98.58 176.17 99.56 175.7C98.6 174.75 97.04 175.21 96.66 177.03H96.67ZM125.11 133.03C127.92 133.56 128.2 131.58 126.83 129.8C126.07 130.22 125.31 130.64 124.52 131.07C124.52 131.75 124.74 132.5 125.1 133.03H125.11ZM118.68 158.21C118.12 157.81 117.38 157.52 116.46 157.34C115.6 157.97 114.73 158.6 115.14 160.04C117.32 161.24 118.13 160.81 118.68 158.21ZM75.29 165.11C77.44 164.82 77.73 164.59 78.23 162.78C77.69 161.53 76.4 161.98 75.41 161.49C74.51 162.31 74.46 163.11 75.24 163.97C75.46 164.34 74.72 164.77 75.3 165.12L75.29 165.11ZM116.05 166.37C115.13 166.53 114.92 167.15 115.09 167.78C115.9 167.35 116.71 166.91 117.52 166.47C117.08 166.26 116.57 166.19 116.05 166.37ZM93.32 161.5C92.95 162.62 92.3 163.55 93.02 164.59C93.83 164.55 94.45 164.71 95.06 165.18C96.24 164.13 96.24 164.14 95.65 163.04C95.33 161.8 94.67 161.19 93.32 161.51V161.5ZM115.1 149.26C115.45 150.36 115.32 151.61 116.74 151.85C120.76 150.98 117.31 146.77 115.1 149.26ZM133.54 149.47C132.78 152.67 138.02 150.5 136.96 148.85C135.78 147.98 133.31 146.94 133.54 149.47ZM132.26 127.86C132.19 127.52 132.12 127.21 132.05 126.91C131.25 127.35 130.43 127.8 129.59 128.26C130.13 128.59 131.04 128.51 132.26 127.85V127.86ZM69.16 163.44C69.28 163.08 69.21 162.78 68.97 162.48C69.01 162.72 69.08 163.05 69.16 163.44ZM107.99 156.97C107.94 156.66 107.78 156.51 107.5 156.6C107.36 156.64 107.15 156.89 107.18 156.98C107.4 158.46 105.01 158.51 106.67 160.21H108.89C109.3 159.61 109.68 159.05 110.09 158.44C109.59 156.99 108.03 158.55 107.99 156.98V156.97ZM130.5 152.46C129.37 152.68 128.22 154.04 128.84 155.22C130.46 155.86 131.5 155.83 132.25 154.07C131.99 153.05 131.36 152.63 130.5 152.46ZM136.05 129.71C135.18 129.68 134.41 129.55 134.19 130.51C132.68 131.13 133.3 131.96 134.21 133.05C136.84 133.57 136.76 131.67 136.05 129.71ZM123.21 145.48C122.837 144.707 122.277 144.133 121.53 143.76C119.85 144.08 118.81 144.62 120.34 146.51C120.92 146.68 121.56 146.88 122.29 147.09C122.63 146.49 122.93 145.96 123.21 145.48ZM99.57 169.46C99.5 169.23 99.43 169 99.31 168.61C104.02 166.46 96.77 165.73 96.93 168.68C97.16 169.53 98.97 170.25 99.56 169.46H99.57ZM101.96 171.07C101.46 172.21 102.25 173.07 102.27 174.19C102.37 174.22 102.46 174.22 102.56 174.24C103.25 173.9 103.94 173.55 104.65 173.2C104.99 171.95 103.95 170.2 101.96 171.07ZM122.72 134.97C120.74 134.65 118.91 135.73 120.3 137.78C120.95 137.84 121.62 137.9 122.29 137.96C122.66 137.45 122.98 137.01 123.3 136.57C123.12 136.06 122.95 135.6 122.72 134.97ZM109.73 140.18C109.58 139.91 109.41 139.7 109.24 139.52C108.25 140.07 107.26 140.62 106.27 141.17C106.32 141.46 106.42 141.77 106.59 142.08C107.9 142.15 108.99 141.45 109.73 140.18ZM117.32 138.43C116.92 138.3 116.35 138.57 116.22 139.18C116.09 140.24 115.15 140.03 114.72 140.73C115.36 140.92 115.72 141.36 116.11 141.85C118.04 143.29 119.34 138.98 117.31 138.43H117.32ZM113.65 155.52C113.73 154.82 113.8 154.16 113.89 153.42C109.38 151.35 109.67 157.32 113.65 155.52ZM100.64 150.02C99.84 149.12 98.63 149.18 97.96 148.3C97.34 148.61 96.91 149.11 96.48 149.73C97.8 151.6 99.55 152.44 100.63 150.02H100.64ZM108.67 168.93C109.67 167.91 108.99 167.12 108.72 166.33C105.12 165.48 104.94 169.84 108.67 168.93ZM132.03 136.8C133.14 135.12 131.09 134.31 129.64 134.63C127.85 136.71 130.36 138.07 132.03 136.8ZM125.05 139.59C124.24 140.42 124.53 142.02 125.81 142.11C129.31 141.59 127.42 138.08 125.05 139.59ZM125.05 151.13C131.36 150.07 124.72 145.61 124.34 150.49C124.56 150.69 124.83 150.93 125.05 151.13ZM110.18 145.16C111.13 146.64 110.97 146.25 113.21 146.01C115.35 143.44 110.96 143.19 110.18 145.16ZM128.18 159.12C127.21 157.49 125.85 156.8 124.53 158.65C124.97 160.81 127.16 160.49 128.18 159.12ZM121.22 161.84C120.38 162.03 119.83 162.46 119.64 163.39C120.03 164.04 120.58 164.37 121.12 164.47C121.78 164.1 122.44 163.73 123.11 163.36C123.09 162.85 122.58 162.27 121.22 161.83V161.84ZM109.32 149.73C108.16 148.3 107.85 148.16 106.47 148.41C106.32 148.86 106.16 149.32 105.96 149.91C106.78 150.5 107.54 151.15 108.44 151.03C108.72 150.61 109.03 150.16 109.32 149.73Z" fill="#421B36"/>
</g>
<path d="M80.4299 169.58C78.6899 169.58 66.2099 151.7 72.0199 145.9C77.8299 140.1 140.22 109.48 144.73 114.15C149.54 119.14 154.19 136.47 154.19 136.47L80.4199 169.58H80.4299Z" fill="#0757C6"/>
<path d="M112.39 317.18C112.39 317.18 126.4 358.01 136.28 355.43C146.16 352.85 176.41 340.13 176.37 335.5C176.29 326.81 161.88 296.56 155.88 294.26C146.61 290.72 109.99 311.18 112.38 317.17L112.39 317.18Z" fill="white"/>
<path d="M135.39 356.25C131.12 356.25 125.95 349.98 120 337.58C115.38 327.95 111.89 317.89 111.73 317.43C111.19 316.06 112.01 314.3 114.22 312.05C122.37 303.78 148.37 290.65 156.14 293.62C160.45 295.27 167.06 308.25 168.99 312.19C172.99 320.38 177.04 330.77 177.08 335.51C177.13 341.13 144.7 353.97 136.46 356.12C136.11 356.21 135.75 356.26 135.38 356.26L135.39 356.25ZM153.18 294.55C143.83 294.55 122.24 305.91 115.23 313.03C112.83 315.47 112.91 316.56 113.05 316.92V316.95C116.9 328.13 128.55 356.7 136.11 354.75C147.92 351.67 175.71 339.14 175.68 335.51C175.6 326.55 161 296.97 155.65 294.92C154.98 294.66 154.15 294.54 153.19 294.54L153.18 294.55Z" fill="#0757C6"/>
<path d="M53.74 198.02C53.74 198.02 67.75 238.85 77.63 236.27C87.51 233.69 117.76 220.97 117.72 216.34C117.64 207.65 103.23 177.4 97.23 175.1C87.96 171.56 51.34 192.02 53.73 198.01L53.74 198.02Z" fill="white"/>
<path d="M76.73 237.09C72.46 237.09 67.29 230.82 61.34 218.42C56.72 208.79 53.23 198.73 53.07 198.27C52.53 196.9 53.35 195.14 55.56 192.89C63.71 184.62 89.71 171.5 97.48 174.46C101.79 176.11 108.4 189.09 110.33 193.03C114.33 201.22 118.38 211.61 118.42 216.35C118.47 221.97 86.04 234.81 77.8 236.96C77.45 237.05 77.09 237.1 76.72 237.1L76.73 237.09ZM94.52 175.39C85.18 175.39 63.58 186.75 56.57 193.87C54.17 196.31 54.25 197.4 54.39 197.76V197.79C58.11 208.6 69.1 235.68 76.68 235.69C76.94 235.69 77.2 235.66 77.45 235.59C89.26 232.51 117.05 219.98 117.02 216.35C116.94 207.39 102.34 177.81 96.99 175.76C96.32 175.5 95.49 175.38 94.53 175.38L94.52 175.39Z" fill="#0757C6"/>
<path d="M91.4999 184.14C90.8699 185.83 87.9099 216.19 87.9099 216.19C87.9099 216.19 70.5799 208.6 70.1499 208.31C70.1499 208.31 67.0499 212.99 67.5999 214.64C68.1499 216.29 88.6099 226.17 92.1799 223.29C95.7499 220.41 98.9099 184.68 98.9099 184.68L91.5099 184.14H91.4999Z" fill="#0757C6"/>
<path d="M151.46 300.25C150.83 301.94 147.87 332.3 147.87 332.3C147.87 332.3 130.54 324.71 130.11 324.42C130.11 324.42 127.01 329.1 127.56 330.75C128.11 332.4 148.57 342.28 152.14 339.4C155.71 336.52 158.87 300.79 158.87 300.79L151.47 300.25H151.46Z" fill="#0757C6"/>
<path d="M117.87 177.07C139.94 166.47 162.03 155.9 183.89 144.88C184.9 144.37 184.01 142.85 183 143.36C161.13 154.38 139.05 164.95 116.98 175.55C115.96 176.04 116.85 177.56 117.87 177.07Z" fill="#421B36"/>
<path d="M122.83 188.61C145.71 179.38 167.94 168.62 189.85 157.3C190.86 156.78 189.97 155.26 188.96 155.78C167.19 167.03 145.09 177.74 122.36 186.91C121.32 187.33 121.78 189.03 122.83 188.61Z" fill="#421B36"/>
<path d="M130.52 199.67C149.89 190.57 169.26 181.46 188.63 172.36C189.65 171.88 188.76 170.36 187.74 170.84C168.37 179.94 149 189.05 129.63 198.15C128.61 198.63 129.5 200.15 130.52 199.67Z" fill="#421B36"/>
<path d="M86.31 144.39C86.31 144.39 74.89 136.74 77.68 129.5C80.46 122.26 124.46 103.89 127.8 108.62C131.14 113.35 135.32 127.66 135.32 127.66L87.71 144.38" fill="#0757C6"/>
<path d="M76.42 130.3C78.41 137.91 83.96 144.29 89.32 149.81C89.53 150.02 89.89 150.14 90.18 150.04C104.28 144.97 118.37 139.9 132.47 134.83C134.45 134.12 136.43 133.41 138.4 132.7C138.83 132.55 139.17 132.1 139.01 131.62C136.29 123.44 132.71 115.58 128.3 108.18C127.72 107.21 126.2 108.09 126.78 109.07C131.11 116.35 134.64 124.05 137.31 132.09C137.51 131.73 137.72 131.37 137.92 131.01C123.82 136.08 109.73 141.15 95.63 146.22C93.65 146.93 91.67 147.64 89.7 148.35C89.99 148.43 90.27 148.5 90.56 148.58C85.41 143.28 80.02 137.17 78.11 129.85C77.82 128.75 76.13 129.22 76.41 130.32L76.42 130.3Z" fill="#421B36"/>
<path d="M80.14 170.6C104.69 159.26 129.23 147.91 153.78 136.57C154.81 136.1 153.91 134.58 152.89 135.05C128.34 146.39 103.8 157.74 79.25 169.08C78.22 169.55 79.12 171.07 80.14 170.6Z" fill="#421B36"/>
<path d="M94.27 133.88C94.29 133.82 94.29 133.76 94.3 133.71C94.3 133.66 94.32 133.6 94.32 133.54C94.32 133.43 94.3 133.31 94.27 133.2C94.24 133.09 94.19 132.99 94.14 132.89C94.14 132.87 94.12 132.86 94.11 132.84C94.06 132.77 94 132.69 93.94 132.62C93.87 132.54 93.76 132.47 93.68 132.41C93.59 132.35 93.47 132.3 93.38 132.27C93.36 132.27 93.34 132.26 93.33 132.25C93.24 132.23 93.14 132.22 93.05 132.21C92.93 132.2 92.81 132.23 92.7 132.24C92.55 132.28 92.42 132.36 92.31 132.47C92.2 132.58 92.13 132.71 92.08 132.86C92.03 133.09 92.03 133.21 92.08 133.43C92.1 133.54 92.15 133.64 92.21 133.73C92.25 133.79 92.31 133.88 92.38 133.94C92.38 133.94 92.39 133.95 92.4 133.96C92.46 134.01 92.53 134.07 92.6 134.11C92.69 134.17 92.8 134.21 92.91 134.25C93.02 134.29 93.15 134.3 93.26 134.31C93.3 134.31 93.34 134.31 93.38 134.31C93.49 134.3 93.61 134.29 93.72 134.25C93.94 134.17 94.02 134.12 94.2 133.97C94.28 133.9 94.36 133.81 94.41 133.71C94.44 133.65 94.5 133.54 94.52 133.45C94.52 133.45 94.52 133.44 94.52 133.43C94.53 133.35 94.55 133.26 94.55 133.18C94.55 133.17 94.55 133.15 94.55 133.14C94.54 133.22 94.53 133.3 94.52 133.37C94.55 133.27 94.57 133.16 94.56 133.06C94.54 132.84 94.52 132.75 94.42 132.55C94.33 132.38 94.16 132.22 94 132.12C93.91 132.07 93.82 132.03 93.72 132C93.72 132 93.71 132 93.7 132C93.62 131.98 93.53 131.98 93.45 131.97C93.44 131.97 93.42 131.97 93.41 131.97C93.2 131.98 93.09 132.01 92.9 132.1C92.89 132.1 92.87 132.11 92.86 132.12C92.8 132.16 92.73 132.22 92.67 132.27C92.67 132.27 92.66 132.28 92.65 132.29C92.56 132.37 92.5 132.46 92.47 132.57C92.41 132.67 92.39 132.79 92.39 132.91C92.39 133.03 92.41 133.14 92.47 133.25C92.51 133.36 92.57 133.45 92.65 133.53C92.71 133.58 92.77 133.62 92.83 133.67C92.97 133.75 93.12 133.79 93.27 133.79C93.35 133.78 93.43 133.77 93.5 133.76C93.65 133.72 93.78 133.64 93.89 133.53C93.89 133.53 93.91 133.51 93.92 133.5C93.86 133.55 93.8 133.59 93.74 133.64C93.75 133.64 93.76 133.62 93.78 133.62C93.71 133.65 93.64 133.68 93.57 133.71C93.59 133.71 93.6 133.7 93.62 133.7C93.54 133.71 93.46 133.72 93.39 133.73C93.41 133.73 93.43 133.73 93.45 133.73C93.37 133.72 93.29 133.71 93.22 133.7C93.25 133.7 93.27 133.71 93.29 133.72C93.22 133.69 93.15 133.66 93.08 133.63C93.1 133.64 93.13 133.65 93.15 133.67C93.09 133.62 93.03 133.58 92.97 133.53C92.99 133.54 93 133.56 93.02 133.58C92.97 133.52 92.93 133.46 92.88 133.4C92.89 133.42 92.9 133.43 92.91 133.45C92.88 133.38 92.85 133.31 92.82 133.24C92.82 133.26 92.83 133.27 92.83 133.29C92.82 133.21 92.81 133.13 92.8 133.06C92.8 133.07 92.8 133.09 92.8 133.1C92.81 133.02 92.82 132.94 92.83 132.87C92.82 132.96 92.79 133.05 92.79 133.15C92.79 133.16 92.79 133.18 92.79 133.19L92.82 132.96C92.82 132.96 92.82 133 92.8 133.02C92.83 132.95 92.86 132.88 92.89 132.81C92.89 132.83 92.87 132.84 92.86 132.86C92.91 132.8 92.95 132.74 93 132.68C92.99 132.7 92.97 132.71 92.95 132.72C93.01 132.67 93.07 132.63 93.13 132.58C93.11 132.6 93.08 132.61 93.06 132.62C93.13 132.59 93.2 132.56 93.27 132.53C93.24 132.54 93.2 132.55 93.16 132.56C93.24 132.55 93.32 132.54 93.39 132.53C93.34 132.53 93.29 132.53 93.24 132.53C93.32 132.54 93.4 132.55 93.47 132.56C93.42 132.56 93.38 132.54 93.34 132.52C93.41 132.55 93.48 132.58 93.55 132.61C93.52 132.6 93.49 132.58 93.47 132.56C93.53 132.61 93.59 132.65 93.65 132.7C93.63 132.68 93.61 132.67 93.6 132.65C93.65 132.71 93.69 132.77 93.74 132.83C93.73 132.81 93.72 132.8 93.71 132.78C93.74 132.85 93.77 132.92 93.8 132.99C93.8 132.97 93.79 132.95 93.78 132.93C93.79 133.01 93.8 133.09 93.81 133.16C93.81 133.14 93.81 133.12 93.81 133.1C93.8 133.18 93.79 133.26 93.78 133.33V133.31C93.58 133.51 93.37 133.72 93.17 133.92C93.17 133.92 93.18 133.92 93.19 133.92L92.96 133.95C92.96 133.95 93.02 133.95 93.06 133.95C92.98 133.94 92.9 133.93 92.83 133.92C92.86 133.92 92.9 133.93 92.93 133.95C92.86 133.92 92.79 133.89 92.72 133.86C92.76 133.88 92.79 133.9 92.83 133.92C92.77 133.87 92.71 133.83 92.65 133.78C92.68 133.81 92.71 133.84 92.74 133.87C92.69 133.81 92.65 133.75 92.6 133.69C92.63 133.72 92.65 133.76 92.66 133.8C92.63 133.73 92.6 133.66 92.57 133.59C92.58 133.63 92.6 133.66 92.6 133.7C92.59 133.62 92.58 133.54 92.57 133.47C92.57 133.51 92.57 133.54 92.57 133.58C92.58 133.5 92.59 133.42 92.6 133.35C92.6 133.37 92.6 133.39 92.59 133.41C92.55 133.53 92.55 133.64 92.57 133.76C92.57 133.88 92.61 133.99 92.67 134.09C92.73 134.19 92.8 134.27 92.9 134.34C92.98 134.42 93.08 134.47 93.2 134.5C93.28 134.51 93.36 134.52 93.43 134.53C93.59 134.53 93.74 134.49 93.87 134.41C93.93 134.36 93.99 134.32 94.05 134.27C94.16 134.16 94.23 134.03 94.28 133.88H94.27Z" fill="#421B36"/>
<path d="M118.79 120.43C118.79 120.43 118.74 120.41 118.72 120.41C118.71 120.41 118.7 120.41 118.69 120.41C118.6 120.4 118.51 120.38 118.43 120.38C118.41 120.38 118.38 120.38 118.36 120.38C118.26 120.38 118.16 120.4 118.07 120.42C118.01 120.44 117.96 120.46 117.9 120.49C117.85 120.51 117.79 120.53 117.73 120.56C117.71 120.57 117.69 120.59 117.67 120.6C117.59 120.66 117.51 120.71 117.44 120.78C117.35 120.86 117.28 120.97 117.21 121.06C117.18 121.1 117.15 121.15 117.13 121.19C117.08 121.3 117.02 121.42 117 121.53C116.98 121.63 116.97 121.73 116.96 121.83C116.96 121.85 116.96 121.88 116.96 121.9C116.96 122.02 116.98 122.15 117.01 122.27C117.04 122.36 117.08 122.45 117.12 122.54C117.13 122.56 117.14 122.58 117.16 122.6C117.21 122.68 117.27 122.76 117.34 122.83C117.34 122.83 117.36 122.85 117.37 122.85C117.43 122.9 117.59 123.01 117.56 122.99C117.63 123.02 117.7 123.05 117.77 123.08L118 123.11C118.07 123.11 118.18 123.09 118.25 123.08H118.27C118.28 123.08 118.3 123.08 118.31 123.07C118.39 123.04 118.47 123.01 118.55 122.97C118.57 122.97 118.58 122.96 118.59 122.95C118.7 122.89 118.82 122.8 118.9 122.7C118.96 122.62 119.03 122.54 119.08 122.46C119.13 122.37 119.17 122.27 119.2 122.18C119.25 122.05 119.27 121.91 119.26 121.78C119.26 121.76 119.26 121.75 119.26 121.73C119.26 121.64 119.24 121.55 119.22 121.47C119.22 121.46 119.22 121.44 119.21 121.43C119.18 121.35 119.15 121.26 119.11 121.19C119.08 121.13 119.03 121.08 118.99 121.02C118.95 120.96 118.91 120.91 118.86 120.86C118.68 120.7 118.54 120.62 118.32 120.55C118.29 120.54 118.26 120.53 118.23 120.53C118.14 120.52 118.01 120.49 117.91 120.49C117.82 120.49 117.72 120.51 117.64 120.53C117.62 120.53 117.61 120.53 117.59 120.53C117.49 120.56 117.39 120.6 117.29 120.65C117.19 120.71 117.11 120.78 117.04 120.88C116.96 120.97 116.91 121.06 116.88 121.18C116.84 121.3 116.84 121.41 116.86 121.53C116.86 121.65 116.9 121.76 116.96 121.86C117.08 122.05 117.26 122.21 117.49 122.26C117.57 122.27 117.65 122.28 117.72 122.29C117.88 122.29 118.03 122.25 118.16 122.17C118.17 122.17 118.19 122.16 118.2 122.15C118.13 122.18 118.06 122.21 117.99 122.24C118.02 122.23 118.06 122.22 118.09 122.21C118.01 122.22 117.93 122.23 117.86 122.24C117.9 122.24 117.94 122.24 117.98 122.24C117.9 122.23 117.82 122.22 117.75 122.21C117.79 122.21 117.84 122.23 117.88 122.25C117.81 122.22 117.74 122.19 117.67 122.16C117.71 122.18 117.75 122.2 117.78 122.23C117.72 122.18 117.66 122.14 117.6 122.09C117.63 122.11 117.65 122.14 117.68 122.17C117.63 122.11 117.59 122.05 117.54 121.99C117.56 122.02 117.58 122.05 117.59 122.08C117.56 122.01 117.53 121.94 117.5 121.87C117.51 121.9 117.52 121.93 117.53 121.96C117.52 121.88 117.51 121.8 117.5 121.73C117.5 121.77 117.5 121.8 117.5 121.84C117.51 121.76 117.52 121.68 117.53 121.61C117.53 121.65 117.51 121.69 117.5 121.73C117.53 121.66 117.56 121.59 117.59 121.52C117.57 121.56 117.55 121.59 117.53 121.63C117.58 121.57 117.62 121.51 117.67 121.45C117.64 121.48 117.62 121.51 117.58 121.54C117.64 121.49 117.7 121.45 117.76 121.4C117.73 121.43 117.69 121.45 117.65 121.46C117.72 121.43 117.79 121.4 117.86 121.37C117.83 121.38 117.8 121.39 117.76 121.4C117.84 121.39 117.92 121.38 117.99 121.37C117.99 121.37 117.99 121.37 117.98 121.37C118.19 121.46 118.39 121.54 118.6 121.63C118.57 121.61 118.55 121.58 118.53 121.56C118.58 121.62 118.62 121.68 118.67 121.74C118.65 121.71 118.63 121.68 118.62 121.65C118.65 121.72 118.68 121.79 118.71 121.86C118.7 121.82 118.69 121.79 118.68 121.75L118.71 121.98C118.71 121.98 118.71 121.88 118.71 121.84C118.7 121.92 118.69 122 118.68 122.07C118.68 122.01 118.71 121.95 118.73 121.9C118.7 121.97 118.67 122.04 118.64 122.11C118.67 122.05 118.7 121.99 118.74 121.94C118.69 122 118.65 122.06 118.6 122.12C118.64 122.07 118.68 122.03 118.72 122C118.66 122.05 118.6 122.09 118.54 122.14C118.58 122.11 118.62 122.09 118.67 122.07L118.46 122.16C118.46 122.16 118.54 122.13 118.58 122.13C118.5 122.14 118.42 122.15 118.35 122.16C118.39 122.16 118.42 122.16 118.45 122.16C118.37 122.15 118.29 122.14 118.22 122.13C118.26 122.13 118.29 122.15 118.33 122.16C118.45 122.2 118.56 122.2 118.68 122.18C118.8 122.18 118.91 122.14 119.01 122.08C119.11 122.02 119.19 121.95 119.26 121.85C119.34 121.77 119.39 121.67 119.42 121.55C119.43 121.47 119.44 121.39 119.45 121.32C119.45 121.16 119.41 121.01 119.33 120.88C119.28 120.82 119.24 120.76 119.19 120.7C119.08 120.59 118.95 120.52 118.8 120.47L118.79 120.43Z" fill="#421B36"/>
<path d="M27.32 212.95C27.32 212.95 21.48 207.83 21.52 203.12C21.57 197.02 29.45 182.67 35.53 181.69C41.61 180.7 43.87 188.01 41.92 190.73C39.98 193.45 33.98 199.13 32.83 202.24C31.79 205.06 33.49 206.16 33.49 206.16C33.49 206.16 44.73 193.65 50.98 195.79C57.23 197.93 54.55 203.4 54.55 203.4C54.55 203.4 64.13 205.85 58.26 215.44C58.26 215.44 61.11 219.72 59.13 224.14C57.15 228.56 49.62 235.47 49.62 235.47C49.62 235.47 52.51 244.24 51.34 245.17C47.43 248.3 33.12 240.18 34.35 234.1C34.35 234.1 29.38 229.15 29.9 224.42L30.43 222.17C30.43 222.17 24.95 217.51 27.31 212.94L27.32 212.95Z" fill="#FFBFBF"/>
<path d="M58.7299 215.31C56.8799 213.5 54.3299 214.23 52.3799 215.46C49.8999 217.02 47.5399 218.85 45.3199 220.76C40.8799 224.56 37.1099 229.01 33.7299 233.77C33.1999 234.52 34.4499 235.19 34.9799 234.45C37.8499 230.41 41.0299 226.59 44.6899 223.22C46.5499 221.51 48.5099 219.92 50.5599 218.45C52.3599 217.15 55.6099 214.24 57.7599 216.35C58.4099 216.99 59.3999 215.96 58.7399 215.31H58.7299Z" fill="#421B36"/>
<path d="M30.5999 222.72C34.0899 218.83 37.7399 215.08 41.5499 211.5C43.4199 209.74 45.3299 208.02 47.2899 206.35C48.9699 204.92 51.3599 202.89 53.7199 203.89C54.5599 204.25 55.2499 203 54.3999 202.64C52.4599 201.82 50.5599 202.34 48.8199 203.41C46.4899 204.84 44.4799 206.89 42.4699 208.72C37.9499 212.83 33.6399 217.19 29.5599 221.74C28.9499 222.42 29.9799 223.41 30.5999 222.72Z" fill="#421B36"/>
<path d="M28.1 213.59C29.86 209.84 32.59 206.61 36.02 204.29C36.78 203.78 36.03 202.56 35.27 203.08C31.64 205.54 28.71 208.94 26.85 212.91C26.46 213.74 27.71 214.43 28.1 213.59Z" fill="#421B36"/>
<path d="M30.07 185.91C30.99 187.49 32.88 188.47 34.71 188.23C36.59 187.98 38.16 186.61 38.68 184.78C38.93 183.9 37.55 183.55 37.3 184.44C36.95 185.66 35.85 186.65 34.58 186.82C33.26 186.99 31.95 186.3 31.28 185.16C30.82 184.37 29.6 185.12 30.07 185.91Z" fill="#421B36"/>
<path d="M46.09 221.24C48.06 223.08 50.92 223.84 53.54 223.15C56.16 222.45 58.23 220.32 59.01 217.75C59.28 216.87 57.89 216.53 57.63 217.41C56.99 219.51 55.27 221.22 53.14 221.79C51.01 222.36 48.67 221.71 47.07 220.22C46.4 219.59 45.42 220.63 46.09 221.26V221.24Z" fill="#421B36"/>
<path d="M43.0599 208.98C44.8899 211.05 48.0399 211.28 50.4599 210.2C53.3399 208.91 55.0199 205.99 56.0299 203.14C56.3399 202.27 54.9499 201.94 54.6499 202.8C53.7999 205.19 52.3999 207.68 50.0399 208.84C48.0899 209.8 45.5299 209.63 44.0499 207.95C43.4399 207.26 42.4699 208.3 43.0699 208.99L43.0599 208.98Z" fill="#421B36"/>
<path d="M41.27 200.88C42.93 202.09 45.1 202.5 47.1 202.04C49.15 201.56 50.91 200.11 51.84 198.24C52.25 197.42 51 196.73 50.59 197.56C49.81 199.12 48.4 200.28 46.7 200.68C45.05 201.06 43.32 200.62 41.96 199.64C41.65 199.41 41.16 199.62 40.99 199.92C40.78 200.29 40.96 200.66 41.27 200.89V200.88Z" fill="#421B36"/>
<path d="M202.36 207.16L141.63 263.91L140.8 264.68L140.71 264.77C140.71 264.77 136.32 266.64 131.97 268.24C128.53 269.49 125.13 270.59 123.98 270.46C122.62 270.31 123.97 266.27 125.69 262.26C127.29 258.55 129.21 254.86 129.61 254.25C129.64 254.19 129.71 254.12 129.81 254.02C129.96 253.84 130.2 253.55 130.57 253.19C137.43 246.07 178.32 207.44 191.36 195.45C195.08 192.04 201.08 192.74 203.72 197.03C203.76 197.09 203.79 197.15 203.82 197.2C205.75 200.42 205.09 204.57 202.36 207.16Z" fill="#0757C6"/>
<path d="M134.73 256.09C150.21 240.84 166.56 226.52 182.28 211.52C186.4 207.59 190.48 203.6 194.46 199.53C195.25 198.72 194.01 197.47 193.22 198.29C178.25 213.61 162.11 227.76 146.49 242.4C142.11 246.5 137.77 250.64 133.49 254.85C132.68 255.65 133.93 256.89 134.73 256.09Z" fill="white"/>
<path d="M140.75 259.53C159.84 240.73 180.42 223.49 199.15 204.33C199.94 203.52 198.7 202.27 197.91 203.09C179.18 222.25 158.6 239.49 139.51 258.29C138.7 259.09 139.95 260.33 140.75 259.53Z" fill="white"/>
<path d="M141.62 263.92L140.79 264.69C140.79 264.69 126.65 270.69 124.06 270.38C121.46 270.09 128.83 255.44 129.69 254.17C129.79 254.02 130.08 253.69 130.57 253.19C134.29 254.01 139.35 256.53 141.63 263.91L141.62 263.92Z" fill="#A0D2F4"/>
<path d="M131.97 268.25C128.53 269.5 125.13 270.6 123.98 270.47C122.62 270.32 123.97 266.28 125.69 262.27C125.7 262.27 125.72 262.27 125.73 262.28C127.26 262.54 131.03 263.78 131.96 268.19C131.97 268.2 131.97 268.23 131.97 268.25Z" fill="#0757C6"/>
<path d="M131.09 254.04C135.17 255.74 138.49 259.25 140 263.4C140.16 263.85 140.6 264.15 141.08 264.01C141.51 263.89 141.86 263.38 141.69 262.93C139.95 258.14 136.26 254.3 131.55 252.34C131.11 252.16 130.58 252.54 130.47 252.95C130.33 253.46 130.64 253.85 131.08 254.03L131.09 254.04Z" fill="#421B36"/>
<path d="M190.88 197.79C194.96 199.49 198.28 203 199.79 207.15C199.95 207.6 200.39 207.9 200.87 207.76C201.3 207.64 201.65 207.13 201.48 206.68C199.74 201.89 196.05 198.05 191.34 196.09C190.9 195.91 190.37 196.29 190.26 196.7C190.12 197.21 190.43 197.6 190.87 197.78L190.88 197.79Z" fill="#421B36"/>
<path d="M147.84 239.02C143.7 242.14 137.57 239.48 137.39 234.3C137.39 234.25 137.39 234.19 137.39 234.14C137.33 230.51 142.6 223.73 156.71 216.81C166.28 212.12 184.55 223.64 184.55 223.64L250.28 276.34L224.38 296.69L209.77 275.6C204.21 277.55 198.05 275.48 194.73 270.61C194.02 269.57 193.44 268.87 193.18 268.89C192.19 268.97 181.83 276.31 175.44 265.37C175.44 265.37 163.35 263.88 164.18 255.83C164.18 255.83 155.6 254.55 158.45 246.83C161.3 239.11 172.2 232.23 172.2 232.23C172.2 232.23 162.94 229.01 159.31 230.3C156.63 231.26 152.49 235.51 147.84 239.01V239.02Z" fill="#FFBFBF"/>
<path d="M177.46 264.67C178.87 259.12 182.62 254.35 187.68 251.65C188.68 251.12 187.79 249.6 186.79 250.13C181.35 253.03 177.28 258.23 175.76 264.2C175.48 265.3 177.18 265.77 177.46 264.67Z" fill="#421B36"/>
<path d="M192.39 268.98C194.64 268.31 196.29 266.28 196.5 263.94C196.7 261.64 195.25 259.27 193.14 258.36C192.7 258.17 192.2 258.23 191.94 258.68C191.72 259.05 191.82 259.69 192.26 259.88C193.81 260.56 194.85 262.11 194.75 263.82C194.66 265.41 193.43 266.84 191.93 267.29C190.85 267.61 191.31 269.31 192.4 268.99L192.39 268.98Z" fill="#421B36"/>
<path d="M165.29 256.57C167.74 250.01 172.85 244.64 179.22 241.76C180.25 241.29 179.36 239.78 178.33 240.24C171.53 243.31 166.2 249.13 163.59 256.1C163.19 257.16 164.89 257.62 165.29 256.57Z" fill="#421B36"/>
<path d="M141.69 239.81C143.66 238.43 144.93 236.3 145.18 233.9C145.42 231.5 144.43 229.05 142.71 227.39C141.89 226.61 140.65 227.85 141.47 228.63C144.28 231.32 144.04 236.01 140.81 238.28C139.89 238.93 140.77 240.45 141.7 239.8L141.69 239.81Z" fill="#421B36"/>
<path d="M166.47 237.86C169.76 234.52 173.71 231.85 178.06 230.09C178.5 229.91 178.81 229.5 178.67 229.01C178.56 228.59 178.03 228.22 177.59 228.4C172.95 230.27 168.73 233.05 165.22 236.62C164.42 237.43 165.67 238.67 166.46 237.86H166.47Z" fill="#421B36"/>
<path d="M317.05 186.39C322.14 188.05 335.24 193.55 344.4 216.84C352.46 237.33 363.57 321.55 349.12 343.21C340.98 355.4 318.49 360 307.79 358.71C297.09 357.43 216.22 328.96 216.33 308.4C216.45 287.85 239.79 261.06 239.79 261.06L302.01 294.41C302.01 294.41 297.87 257.88 293.59 237.76C289.31 217.64 292.48 178.35 317.06 186.39H317.05Z" fill="#0757C6"/>
<path d="M270.78 278.31C270.15 280.03 250.28 338.12 250.28 338.12C250.28 338.12 298.32 358.06 301.67 357.29C310.98 355.15 308.87 298.38 308.87 298.38L270.79 278.31H270.78Z" fill="#A0D2F4"/>
<path d="M292.38 228.87C300.98 215.32 311.9 203.86 326.2 196.38C327.14 195.89 326.32 194.53 325.37 194.97C310.64 201.87 299.8 214.72 291.51 228.37C291.17 228.92 292.03 229.42 292.38 228.88V228.87Z" fill="#421B36"/>
<path d="M238.92 263.01C264.27 276.03 289.69 289.1 315.33 301.52C316.21 301.95 316.98 300.66 316.1 300.2C290.81 287.05 265.14 274.48 239.55 261.93C238.83 261.58 238.2 262.64 238.92 263.01Z" fill="#421B36"/>
<path d="M301.84 294.47C308.53 293.51 315.15 292.14 321.86 291.22C322.84 291.09 322.58 289.53 321.63 289.52C315.04 289.48 307.39 290.64 301.35 293.31C300.63 293.63 301.2 294.56 301.84 294.47Z" fill="#421B36"/>
<path d="M328.25 291.85C329.34 291.85 329.34 290.16 328.25 290.16C327.16 290.16 327.16 291.85 328.25 291.85Z" fill="#421B36"/>
<path d="M293.31 246.75C296 262.79 298.73 278.83 301.79 294.8C302.03 296.03 303.88 295.5 303.66 294.28C300.85 278.28 297.71 262.33 294.53 246.4C294.37 245.59 293.18 245.94 293.31 246.74V246.75Z" fill="#421B36"/>
<path d="M317.94 112.74C316.91 109.14 312.79 107.06 311.86 103.44C311.37 101.53 311.86 99.4901 311.56 97.5401C311.03 94.0401 307.98 91.3501 304.63 90.2001C301.29 89.0401 297.66 89.1301 294.13 89.2401C294.18 80.7901 288.25 73.3801 281.39 68.4401C277.88 65.9101 273.96 63.7801 269.68 63.1501C265.4 62.5201 260.71 63.5601 257.67 66.6401C253.95 62.9001 248.48 61.0001 243.24 61.6201C238.01 62.2401 233.13 65.3801 230.39 69.8801C225.02 66.7601 217.33 68.6801 214.04 73.9501C210.76 79.2201 212.43 86.9701 217.6 90.4201C213.83 92.2301 212.28 97.2001 213.53 101.19C214.78 105.18 218.24 108.18 222.07 109.87C225.9 111.55 230.12 112.11 234.27 112.65L285.41 169.95C300.06 160.95 310.87 135.73 316.15 126.79C318.05 123.58 318.97 116.34 317.94 112.76V112.74Z" fill="#421B36"/>
<path d="M291.37 91.3604C297.61 86.1304 304.12 83.7004 311.8 81.4204C312.74 81.1404 312.62 79.5304 311.56 79.6304C303.73 80.4104 296.12 85.1904 290.89 90.8804C290.59 91.2004 291.04 91.6304 291.37 91.3604Z" fill="#421B36"/>
<path d="M288.83 93.5303C292.76 87.1903 295.61 81.3403 297.14 73.9503C297.42 72.6003 295.29 72.0704 295.1 73.3904C294.13 80.0804 291.99 87.5104 288.47 93.3204C288.33 93.5504 288.68 93.7503 288.82 93.5303H288.83Z" fill="#421B36"/>
<path d="M296.09 109.94C292.35 101.22 285.88 94.9805 278.21 91.3305C263.25 84.2105 243.78 87.0005 231.46 100.58C230.95 101.17 230.43 101.74 229.97 102.34C226.02 107.28 222.87 113.72 220.35 121.96C219.43 125.04 218.59 128.38 217.84 131.98C217.69 132.6 217.56 133.25 217.44 133.89C217.16 135.34 216.91 136.73 216.78 138.09C212.54 170.03 244.7 181.45 251.93 182.61L262.7 203.71L291.68 186.25C291.68 186.25 285.19 170.58 285.41 169.94C285.43 169.92 285.43 169.9 285.45 169.88C286.11 168.1 287.54 164.23 289.21 159.23C289.21 159.21 289.23 159.19 289.23 159.17C289.6 158.03 290 156.84 290.39 155.59C290.57 155.02 290.76 154.47 290.92 153.92C291.69 151.42 292.46 148.82 293.2 146.12C293.51 145.07 293.79 144.05 294.04 142.98C294.08 142.87 294.1 142.72 294.15 142.61C294.81 140 295.43 137.4 295.99 134.83C296.03 134.61 296.08 134.39 296.1 134.19C296.25 133.57 296.36 132.94 296.47 132.35C297.08 129.23 297.5 126.22 297.74 123.39C298.11 119.15 297.76 113.79 296.11 109.92L296.09 109.94Z" fill="#FFBFBF"/>
<path d="M251.1 182C254.71 189.06 257.92 196.37 261.97 203.19C262.53 204.13 263.83 203.31 263.41 202.35C260.2 195.1 255.54 188.56 251.89 181.54C251.62 181.02 250.84 181.48 251.1 182Z" fill="#421B36"/>
<path d="M238.72 116.88C238.37 118.32 239.15 119.74 240.44 120.05C241.74 120.36 243.07 119.45 243.42 118.01C243.77 116.57 242.99 115.15 241.7 114.84C240.4 114.53 239.07 115.44 238.72 116.88Z" fill="#421B36"/>
<path d="M264.14 121.67C263.79 123.11 264.57 124.53 265.86 124.84C267.16 125.15 268.49 124.24 268.84 122.8C269.19 121.36 268.41 119.94 267.12 119.63C265.82 119.32 264.49 120.23 264.14 121.67Z" fill="#421B36"/>
<path d="M280.9 112C278.9 110.03 275.91 108.55 273.28 107.67C270.62 106.78 268.06 107 265.36 106.64C263.88 106.45 263.52 104.46 265.05 103.98C271.45 101.95 278.11 106.36 282 110.94C282.63 111.68 281.61 112.69 280.91 112H280.9Z" fill="#421B36"/>
<path d="M239.63 99.9501C245.17 96.1401 252.6 98.8701 254.42 105.22C257.01 114.23 250.2 125.98 243.79 131.84C242.66 132.87 240.55 131.39 241.59 130.08C245.46 125.24 249.38 120.39 251.16 114.31C252.38 110.13 252.93 105.64 249.33 102.65C246.87 100.61 243.2 100.22 240.06 101.01C239.39 101.18 239.1 100.3 239.63 99.9401V99.9501Z" fill="#421B36"/>
<path d="M242.63 183.05C242.63 183.05 242.69 183.07 242.73 183.07C245.09 183.47 247.51 183.67 249.91 183.59C254.64 183.43 259.29 182.21 263.13 179.43C263.66 179.06 264.16 178.67 264.65 178.23C264.75 178.13 264.61 178.01 264.51 178.05C257.67 180.9 250.28 181.51 242.98 180.68C242.78 180.66 242.62 180.68 242.46 180.75C241.57 181.14 241.48 182.84 242.62 183.04L242.63 183.05Z" fill="#421B36"/>
<path d="M245.56 140.56C250.56 140.56 254.47 140.02 258.08 136.29C259.76 134.55 262.24 137.2 260.66 138.96C256.97 143.08 249.81 144.91 245.43 140.86C245.31 140.75 245.41 140.56 245.56 140.56Z" fill="#421B36"/>
<path d="M293.65 134.82C297.93 133.11 303.32 134.8 304.94 136.74C306.57 138.69 307.24 141.29 307.26 143.83C307.29 148.04 305.42 152.38 301.93 154.74C298.44 157.1 290.94 157.01 287.86 154.13L293.65 134.83V134.82Z" fill="#FFBFBF"/>
<path d="M300.34 146.66C299.75 146.02 298.21 145.39 297.39 145.19C296.05 144.86 295.08 145.32 293.95 145.98C292.73 146.69 291.52 145.01 292.49 144.02C293.78 142.72 295.91 142.26 297.67 142.74C298.51 142.97 299.39 143.44 299.97 144.1C300.63 144.85 300.55 145.53 300.73 146.43C300.78 146.65 300.5 146.83 300.33 146.65L300.34 146.66Z" fill="#421B36"/>
<path d="M277.79 88.1201C285.22 86.7601 296.02 92.9801 301.12 98.5601L298.6 121.74C298.55 124.83 298.1 128.17 297.12 131.78C297.12 131.78 293.75 142.73 289.6 141.54C286.47 140.65 288.46 119.7 288.46 119.7C285.89 116.91 277.67 123.54 278.23 90.6501C278.23 90.6501 278.56 90.8001 279.11 91.0801L277.79 88.1201Z" fill="#421B36"/>
<path d="M280.07 90.78C280.07 90.78 280.05 90.7 280.04 90.66C280.07 90.61 280.1 90.57 280.13 90.52L280.08 90.78H280.07Z" fill="#421B36"/>
<path d="M279.16 95.2998L280.07 90.7798C280.68 92.3198 280.45 94.2698 279.16 95.2998Z" fill="#421B36"/>
<path d="M228.58 92.8299C225.2 91.1799 221.14 91.2399 218.42 94.0999C215.69 96.9699 216.05 101.26 218.38 104.25C219.09 105.17 217.94 106.44 217.07 105.56C213.61 102.09 213.44 96.6299 216.81 92.9999C220.03 89.5399 225.38 89.2899 228.78 92.5599C228.92 92.6899 228.74 92.8899 228.59 92.8099L228.58 92.8299Z" fill="#421B36"/>
<path d="M223.54 99.7602C228.56 102.67 234.76 103.48 240.36 101.96C245.96 100.43 250.89 96.5902 253.74 91.5402C262.65 95.8602 273.61 95.6702 282.36 91.0302C279.05 87.7602 274.64 85.7702 270.09 84.7702C265.55 83.7702 260.85 83.6902 256.2 83.8202C250.37 83.9802 244.48 84.4602 238.96 86.3402C233.44 88.2202 228.27 91.6302 225.23 96.6102C225.61 96.6602 226 96.7102 226.38 96.7602" fill="#421B36"/>
<path d="M259.46 68.4802C256.89 60.7302 248.99 55.7402 240.8 56.6502C231.1 57.7402 224.63 66.9302 224.9 76.2602C224.94 77.8102 227.34 77.8202 227.32 76.2602C227.19 67.9102 232.7 60.1302 241.27 58.9302C248.77 57.8802 255.47 62.3402 259.24 68.5702C259.31 68.6902 259.52 68.6102 259.47 68.4702L259.46 68.4802Z" fill="#421B36"/>
</svg>
